<svg width="24" height="24" xmlns="http://www.w3.org/2000/svg"><g fill="#000" fill-rule="evenodd"><path d="M4.66 3S3 3 3 5.06v.33c.16 1.88.74 3.81 1.4 5.51a14.4 14.4 0 0 1 3.15-3.55C10.24 5.05 13.4 3.7 18.32 3H4.66zM3 13.4c.27-.55.47-.98.78-1.51-.36-.85-.56-1.27-.78-2.17v3.68z"/><path d="M6.24 16.06c-.64-.75-1.2-1.57-1.67-2.44A26.32 26.32 0 0 0 3 17.29v3.46l10.37.02a14 14 0 0 1-7.13-4.7zM20.71 4.13c-5.63.53-9.47 2.14-12.23 4.5a13.7 13.7 0 0 0-3.34 3.99c2.15 4.19 6.54 7.71 13.4 8.16h.14s2.11.07 2.11-2.27V4.1l-.08.02z"/></g></svg>