<?xml version="1.0" encoding="UTF-8"?>
<svg width="18px" height="18px" viewBox="0 0 18 18" version="1.1" xmlns="http://www.w3.org/2000/svg" xmlns:xlink="http://www.w3.org/1999/xlink">
    <!-- Generator: Sketch 50.2 (55047) - http://www.bohemiancoding.com/sketch -->
    <title>PersonIcon</title>
    <desc>Created with Sketch.</desc>
    <defs></defs>
    <g id="ONS-EQ-Elements" stroke="none" stroke-width="1" fill="none" fill-rule="evenodd">
        <g id="PersonSummaryRow" transform="translate(0.000000, -21.000000)" fill="#222222">
            <g id="PersonIcon" transform="translate(0.000000, 21.000000)">
                <path d="M3.05263158,12.5263158 C5.12281737,11.6842063 7.10525368,11.2631579 9,11.2631579 C10.8947463,11.2631579 12.8684108,11.6754345 14.9210526,12.5 C16.9736945,13.3245655 18,14.4035021 18,15.7368421 L18,18 L0,18 L0,15.7368421 C0,14.4035021 1.01753368,13.3333374 3.05263158,12.5263158 Z M12.1578947,7.68421053 C11.2806974,8.56140789 10.2280763,9 9,9 C7.77192368,9 6.71930263,8.56140789 5.84210526,7.68421053 C4.96490789,6.80701316 4.52631579,5.75439211 4.52631579,4.52631579 C4.52631579,3.29823947 4.96490789,2.23684658 5.84210526,1.34210526 C6.71930263,0.447363947 7.77192368,0 9,0 C10.2280763,0 11.2806974,0.447363947 12.1578947,1.34210526 C13.0350921,2.23684658 13.4736842,3.29823947 13.4736842,4.52631579 C13.4736842,5.75439211 13.0350921,6.80701316 12.1578947,7.68421053 Z" id=""></path>
            </g>
        </g>
    </g>
</svg>