<?xml version="1.0" encoding="UTF-8"?>
<svg width="24px" height="24px" viewBox="0 0 24 24" version="1.1" xmlns="http://www.w3.org/2000/svg" xmlns:xlink="http://www.w3.org/1999/xlink">
    <!-- Generator: Sketch 51.2 (57519) - http://www.bohemiancoding.com/sketch -->
    <title>icons--ons-logo</title>
    <desc>Created with Sketch.</desc>
    <defs></defs>
    <g id="icons--ons-logo" stroke="none" stroke-width="1" fill="none" fill-rule="evenodd">
        <g id="Group" transform="translate(3.000000, 3.000000)" fill="#000000">
            <path d="M1.6641,8.49922407e-08 C1.6641,8.49922407e-08 0.0027,-0.00449991501 0.0027,2.05740008 C0.0027,2.19060008 0.0027,1.82430008 0.0027,2.38590008 C0.1611,4.27230008 0.7425,6.20460008 1.4031,7.90290008 C2.3337,6.43410008 3.186,5.51250008 4.5459,4.34970008 C7.2378,2.04480008 10.3977,0.701100085 15.3162,4.4408921e-16 L1.6641,8.49922407e-08 Z M0.0027,10.4049001 C0.2718,9.84870008 0.4689,9.41580008 0.7776,8.89020008 C0.423,8.04330008 0.2223,7.62030008 1.9837105e-14,6.71760008 C-0.0009,8.18820008 0.0027,9.18000008 0.0027,10.4049001 Z" id="Fill-29"></path>
            <path d="M3.2427,13.0638 C2.5956,12.306 2.0412,11.4852 1.5678,10.6203 C0.9657,11.7606 0.4527,12.9882 0.0027,14.2851 C0.0027,16.3038 0.0027,17.7528 0.0027,17.7528 L10.3653,17.7726 C7.0848,16.7754 5.1129,15.2562 3.2427,13.0638 Z M17.7066,1.1271 C12.0789,1.6635 8.2359,3.27 5.4828,5.6226 C4.0059,6.8862 3.0942,7.9329 2.1357,9.6168 C4.2939,13.8072 8.6832,17.3298 15.5493,17.7798 L15.6843,17.7816 C15.6843,17.7816 17.7939,17.8527 17.7939,15.5064 L17.7939,1.11 C17.7669,1.1163 17.7372,1.1244 17.7066,1.1271 Z" id="Fill-30"></path>
        </g>
    </g>
</svg>