<?xml version="1.0" encoding="UTF-8"?>
<svg width="24px" height="24px" viewBox="0 0 24 24" version="1.1" xmlns="http://www.w3.org/2000/svg" xmlns:xlink="http://www.w3.org/1999/xlink">
    <!-- Generator: Sketch 51.1 (57501) - http://www.bohemiancoding.com/sketch -->
    <title>icons--lock</title>
    <desc>Created with Sketch.</desc>
    <defs></defs>
    <g id="icons--lock" stroke="none" stroke-width="1" fill="none" fill-rule="evenodd">
        <path d="M11.9157471,2 C8.81159094,2.00901067 6.29741399,4.52318762 6.28840332,7.62734375 L6.28840332,10.4410156 L3.47473145,10.4410156 L3.47473145,21.6875 L20.3485596,21.6875 L20.3485596,10.4410156 L17.5348877,10.4410156 L17.5348877,7.62734375 C17.5259026,4.5263752 15.0166992,2.0135087 11.9157471,2 Z M11.9157471,4.81367187 C12.6639926,4.80704006 13.3835207,5.10134956 13.912631,5.63045983 C14.4417413,6.1595701 14.7360508,6.87909822 14.7294189,7.62734375 L14.7294189,10.4410156 L9.1020752,10.4410156 L9.1020752,7.62734375 C9.09544338,6.87909822 9.38975288,6.1595701 9.91886315,5.63045983 C10.4479734,5.10134956 11.1675015,4.80704006 11.9157471,4.81367187 Z" id="Shape" fill="#4A4A4A" fill-rule="nonzero"></path>
    </g>
</svg>