<?xml version="1.0" encoding="UTF-8"?>
<svg width="24px" height="24px" viewBox="0 0 24 24" version="1.1" xmlns="http://www.w3.org/2000/svg" xmlns:xlink="http://www.w3.org/1999/xlink">
    <!-- Generator: Sketch 47.1 (45422) - http://www.bohemiancoding.com/sketch -->
    <title>icon-hover-print</title>
    <desc>Created with Sketch.</desc>
    <defs></defs>
    <g id="Page-1" stroke="none" stroke-width="1" fill="none" fill-rule="evenodd">
        <g id="print" fill="#033D58" fill-rule="nonzero">
            <path d="M19,9 L5,9 C3.34,9 2,10.34 2,12 L2,18 L6,18 L6,22 L18,22 L18,18 L22,18 L22,12 C22,10.34 20.66,9 19,9 Z M16,20 L8,20 L8,15 L16,15 L16,20 Z M19,13 C18.45,13 18,12.55 18,12 C18,11.45 18.45,11 19,11 C19.55,11 20,11.45 20,12 C20,12.55 19.55,13 19,13 Z M18,4 L6,4 L6,8 L18,8 L18,4 Z"></path>
        </g>
    </g>
</svg>