<?xml version="1.0" encoding="UTF-8"?><svg width="49.43" height="52" viewBox="-35 -35 173 182" xmlns="http://www.w3.org/2000/svg"><title>logo</title><defs><linearGradient x1="-.025%" y1="50.068%" x2="99.975%" y2="50.068%" id="qa"><stop stop-color="#783D8F" offset="0%"/><stop stop-color="#682782" offset="100%"/></linearGradient><linearGradient x1="38.156%" y1="-30.264%" x2="51.356%" y2="58.536%" id="qb"><stop stop-color="#FFF" offset="0%"/><stop stop-color="#FFF" stop-opacity=".8" offset="100%"/></linearGradient><linearGradient x1="34.156%" y1="7.185%" x2="68.156%" y2="63.585%" id="qc"><stop stop-color="#FFF" offset="0%"/><stop stop-color="#FFF" stop-opacity=".8" offset="100%"/></linearGradient><linearGradient x1="63.533%" y1="68.711%" x2="35.333%" y2="29.511%" id="qd"><stop stop-color="#FFF" offset="0%"/><stop stop-color="#FFF" stop-opacity=".8" offset="100%"/></linearGradient><linearGradient x1="82.856%" y1="50.118%" x2="1.356%" y2="50.118%" id="qe"><stop stop-color="#FFF" offset="0%"/><stop stop-color="#FFF" stop-opacity=".5" offset="100%"/></linearGradient><linearGradient x1="49.975%" y1="185.429%" x2="49.975%" y2="280.26%" id="qf"><stop stop-color="#1E1E1C" offset="0%"/><stop stop-color="#1E1E1C" stop-opacity="0" offset="100%"/></linearGradient><linearGradient x1="-.925%" y1="49.911%" x2="99.675%" y2="49.911%" id="qg"><stop stop-color="#FFF" offset="0%"/><stop stop-color="#FFF" stop-opacity=".8" offset="100%"/></linearGradient><linearGradient x1="-302.605%" y1="49.998%" x2="-206.716%" y2="49.998%" id="qh"><stop stop-color="#1E1E1C" offset="0%"/><stop stop-color="#1E1E1C" stop-opacity="0" offset="100%"/></linearGradient></defs><g fill="none" fill-rule="evenodd"><path d="M43.1 56.5v8.8H22.3V22H43v8.8h21.6v-8.9L43 .4H22.2C20.6 2 1.5 21.2.7 22v43.5L22.3 87v-.1H43l21.6-21.6h.1v-8.8H43.1z" opacity=".61" fill="url(#qa)"/><path fill="url(#qb)" d="M43.2 56.4h21.6v8.8H43.2z"/><path fill="url(#qc)" d="M.8 65.3l21.6 21.6v-65H.8z"/><path fill="url(#qd)" d="M64.7 65.2L43.1 86.8H22.4V65.2z"/><path fill="url(#qe)" d="M43.1 30.7h21.6v-9L43.1.3z"/><path d="M54.6 103.3l3.5.4c-.1 2.4-.9 4.2-2.5 5.8-3.3 3.3-7.5 3.4-11.4-.6-.1-.1-.8-.9-.9-.9-4.4-4.6-3.1-8.9-.5-11.5 1.6-1.6 3.8-2.4 6.7-1.8l-.6 3.7c-4.1-.7-6.7 2.4-1.9 7.1 4.2 4.3 7.4 2.1 7.6-2.2zm15-8.2c-8.5-8.5-6.6-6.8-9.3-8.8l2.5-2.5 1.1.8c-.2-1.3.2-2.6 1.3-3.8 1.7-1.7 3.8-1.9 6 .3l6.2 6.2-3 3C68 83.9 67.6 83 66.6 84c-.7.7-.6 1.7.2 2.5l5.7 5.7-2.9 2.9zM77 82.2c1.8-.4 5-1.9 3.7-3.2-1.3-1.3-4.5 3.4-7.7.2-3.4-3.4.9-8.6 5.4-8.8l.3 3c-2.9.4-4 1.8-3.2 2.6 1.4 1.4 4.7-3.3 7.8-.2 3.8 3.9-1.8 8.6-5.2 9.2L77 82.2zM86.7 60c8.6 8.6 6.8 6.9 9.2 8.9l-2.5 2.5-1-.7-.1.1c.2 1.3-.3 2.5-1.3 3.4-2 2-4.1 1.9-6.2-.2l-6.1-6.1 3-3c6.5 6.5 6.8 7.3 7.9 6.2.6-.6.6-1.6-.1-2.3L83.7 63l3-3zm8.7 3.9c1.8-.4 5-1.9 3.7-3.2-1.3-1.3-4.5 3.4-7.7.2-3.4-3.4.9-8.6 5.4-8.8l.3 3c-2.9.4-4 1.8-3.2 2.6 1.4 1.4 4.7-3.3 7.8-.2 3.8 3.9-1.8 8.7-5.2 9.2l-1.1-2.8zM63.9 93.2l-4.7 4.7c2.5 2.3 4.9-.4 5.3-3l2.9 1.1c0 2-5.3 10.5-11.7 4.1-2.6-2.6-3.4-6.3-.4-9.4 3.2-3.1 6.8-1.4 8.6 2.5zm-6.3 3l2.4-2.4c-.8-1.1-1.7-1.8-2.7-.9-.9.9-.6 2.2.3 3.3z" fill="#FFF"/><path d="M43.1.9H.7c10.5 3.9 30.8 4.4 42.4 0z" opacity=".47" transform="translate(0 21)" fill="url(#qf)"/><path fill="url(#qg)" d="M43.1.3H22.3L.8 21.9h42.4z"/><path d="M2.7 26.6C2.3 17.2 1.6 7.5.4 0v57.9c1.5-11.3 2.7-22.7 2.3-31.3z" opacity=".47" transform="translate(22 29)" fill="url(#qh)"/><path d="M9.4 64.9C8.6 64 8 63.1 8 62.3c0-.6.3-1.1 1.1-1.1.9 0 1.4.4 2.3 1.2l4.7 4.1h2v-9.3h-2.7v4.6l-2.8-2.5c-1.3-1.2-2.4-1.8-3.9-1.8-2.2 0-3.7 1.4-3.7 4.1 0 1.8.9 3.6 2.2 4.9l2.2-1.6zM4.9 51.3c0 2.9 2 4.9 6.6 4.9s6.7-1.6 6.7-4.8c0-3.1-1.9-4.9-6.7-4.9-4.6 0-6.6 1.8-6.6 4.8zm10.7.1c0 .9-1 1.5-3.8 1.5-3.2 0-4.1-.6-4.1-1.5s.9-1.5 3.9-1.5c3.2-.1 4 .6 4 1.5zm0-7.2h2.5v-7.6h-2.5v2.1H7.7l-2.5-.2v2.8l2.5 4.1 2.2-1.2-1-2.2h6.7v2.2zm-7.7-8.7v-4.8c3.1 2.9 6.4 3.2 8.7 3.2H18v-3.5h-1.3c-1.7 0-6.2-.1-9.4-4H5.1v9.1h2.8z" fill="#6D2D86"/></g></svg>