<svg xmlns="http://www.w3.org/2000/svg" xmlns:xlink="http://www.w3.org/1999/xlink" width="52" height="1067" viewBox="0 0 52 1067"><svg width="24" height="24" viewBox="0 0 24 24" id="icon--print-focus" y="0"><title>icon-focus-print</title><path d="M19 9H5c-1.66 0-3 1.34-3 3v6h4v4h12v-4h4v-6c0-1.66-1.34-3-3-3zm-3 11H8v-5h8v5zm3-7c-.55 0-1-.45-1-1s.45-1 1-1 1 .45 1 1-.45 1-1 1zm-1-9H6v4h12V4z" fill="#FFF" fill-rule="nonzero"></path></svg><svg width="24" height="24" viewBox="0 0 24 24" id="icon--print-hover" y="24"><title>icon-hover-print</title><path d="M19 9H5c-1.66 0-3 1.34-3 3v6h4v4h12v-4h4v-6c0-1.66-1.34-3-3-3zm-3 11H8v-5h8v5zm3-7c-.55 0-1-.45-1-1s.45-1 1-1 1 .45 1 1-.45 1-1 1zm-1-9H6v4h12V4z" fill="#033D58" fill-rule="nonzero"></path></svg><svg width="24" height="24" viewBox="0 0 24 24" id="icon--print-link" y="48"><title>icon-link-print</title><path d="M19 9H5c-1.66 0-3 1.34-3 3v6h4v4h12v-4h4v-6c0-1.66-1.34-3-3-3zm-3 11H8v-5h8v5zm3-7c-.55 0-1-.45-1-1s.45-1 1-1 1 .45 1 1-.45 1-1 1zm-1-9H6v4h12V4z" fill="#4263C2" fill-rule="nonzero"></path></svg><svg width="52" height="36" viewBox="-10.62 -10.62 55.25 38.25" id="icons--caret-bottom" y="72"><title>caret-bottom</title><path d="M.41.066l16.393 16.393L33.196.066H.409z"></path></svg><svg width="36" height="52" viewBox="-10.62 -10.62 38.25 55.25" id="icons--caret-left" y="108"><title>caret-left</title><path d="M16.934.869L.541 17.262l16.393 16.393V.868z"></path></svg><svg width="36" height="52" viewBox="-10.62 -10.62 38.25 55.25" id="icons--caret-right" y="160"><title>caret-right</title><path d="M.475.869v32.787l16.393-16.393L.475.87z"></path></svg><svg width="52" height="36.48" viewBox="-10.31 -10.31 53.63 37.63" id="icons--caret-top" y="212"><title>caret-top</title><path d="M16.607.066L.214 16.459h32.787L16.608.066z"></path></svg><svg width="52" height="45.02" viewBox="-17.19 -17.19 89.38 77.38" id="icons--check" y="249"><title>Shape Copy 4</title><path fill="#033E58" d="M48.022 0L18.747 29.26 6.767 17.58 0 24.298 18.537 42.9 55 6.716z" fill-rule="evenodd"></path></svg><svg width="52" height="42.59" viewBox="-10.62 -10.62 55.25 45.25" id="icons--chevron-bottom" y="295"><title>chevron-bottom</title><path d="M16.934 23.098L33.327 6.705 27.179.557 16.933 10.803 6.687.557.539 6.705l16.393 16.393h.002z" fill-rule="evenodd"></path></svg><svg width="49" height="37" viewBox="-10 -10 49 37" id="icons--chevron-down" y="338"><title>Rectangle 1</title><path d="M14.31 12.013L2.387.09.167 2.31 13.2 15.342l1.11 1.11L28.452 2.31 26.232.09 14.31 12.013z" fill="#4A4A4A" fill-rule="evenodd"></path></svg><svg width="42.59" height="52" viewBox="-10.62 -10.62 45.25 55.25" id="icons--chevron-left" y="375"><title>chevron-left</title><path d="M17.295.803L.902 17.196l16.393 16.393 6.148-6.148-10.246-10.246L23.443 6.949 17.295.801z"></path></svg><svg width="42.59" height="52" viewBox="-10.62 -10.62 45.25 55.25" id="icons--chevron-right" y="427"><title>chevron-right</title><path d="M6.984.803L.836 6.951l10.246 10.246L.836 27.443l6.148 6.148 16.393-16.393L6.984.805z"></path></svg><svg width="52" height="42.59" viewBox="-10.62 -10.62 55.25 45.25" id="icons--chevron-top" y="479"><title>chevron-top</title><path d="M17.066.902L.673 17.295l6.148 6.148 10.246-10.246 10.246 10.246 6.148-6.148L17.068.902z"></path></svg><svg width="52" height="52" viewBox="-10.62 -10.62 55.25 55.25" id="icons--circle-check" y="522"><title>circle-check</title><path d="M17 .803C7.943.803.607 8.139.607 17.196S7.943 33.589 17 33.589s16.393-7.336 16.393-16.393S26.057.803 17 .803zm8.197 7.295l2.951 2.951-13.197 13.197-7.049-7.049 2.951-2.951 4.098 4.098L25.197 8.098z"></path></svg><svg width="52" height="52" viewBox="-10.62 -10.62 55.25 55.25" id="icons--circle-x" y="574"><title>circle-x</title><path d="M16.934.803C7.877.803.541 8.139.541 17.196s7.336 16.393 16.393 16.393 16.393-7.336 16.393-16.393S25.991.803 16.934.803zm-6.148 7.295l6.148 6.148 6.148-6.148 2.951 2.951-6.148 6.148 6.148 6.148-2.951 2.951-6.148-6.148-6.148 6.148-2.951-2.951 6.148-6.148-6.148-6.148 2.951-2.951z"></path></svg><svg width="30" height="37" viewBox="-10 -10 30 37" id="icons--details" y="626"><title>Group</title><path d="M.207 2.379l6.414 6.414-6.414 6.414 1.586 1.586 8-8-8-8z" fill="#4263C2" fill-rule="evenodd"></path></svg><svg width="30" height="37" viewBox="-10 -10 30 37" id="icons--details-white" y="663"><title>Group</title><path d="M.207 2.379l6.414 6.414-6.414 6.414 1.586 1.586 8-8-8-8z" fill="#fff" fill-rule="evenodd"></path></svg><svg width="51.06" height="52" viewBox="-10.62 -10.62 54.25 55.25" id="icons--external-link" y="700"><title>external-link</title><path d="M0 .607v32.787h32.787v-8.197h-4.098v4.098H4.099V4.705h4.098V.607H0zm16.393 0l6.148 6.148-10.246 10.246 4.098 4.098 10.246-10.246 6.148 6.148V.608H16.394z"></path></svg><svg width="36.94" height="52" viewBox="-10.62 -10.62 39.25 55.25" id="icons--info" y="752"><title>info</title><path d="M13.164.541a4.11 4.11 0 0 0-4.098 4.098 4.11 4.11 0 0 0 4.098 4.098 4.11 4.11 0 0 0 4.098-4.098A4.11 4.11 0 0 0 13.164.541zM7.016 10.787a6.14 6.14 0 0 0-6.148 6.148h4.098c0-1.148.902-2.049 2.049-2.049 1.148 0 2.049.902 2.049 2.049 0 1.148-4.098 6.721-4.098 10.246 0 3.525 2.746 6.148 6.148 6.148a6.14 6.14 0 0 0 6.148-6.148h-4.098a2.029 2.029 0 0 1-2.049 2.049 2.029 2.029 0 0 1-2.049-2.049c0-1.475 4.098-7.541 4.098-10.246 0-3.32-2.746-6.148-6.148-6.148z"></path></svg><svg viewBox="-31.25 -31.25 162.5 162.5" width="52" height="52" id="icons--info-circle" y="804"><title>info copy</title><path d="M50 94c24.3 0 44-19.7 44-44S74.3 6 50 6 6 25.7 6 50s19.7 44 44 44zm0-8c19.882 0 36-16.118 36-36S69.882 14 50 14 14 30.118 14 50s16.118 36 36 36zm7-54.987c0 1.658-.57 3.072-1.714 4.235C54.146 36.417 52.77 37 51.161 37c-1.614 0-2.993-.583-4.148-1.752-1.152-1.163-1.73-2.577-1.73-4.235 0-1.654.578-3.071 1.73-4.25C48.165 25.587 49.547 25 51.161 25c1.608 0 2.984.589 4.125 1.764C56.431 27.942 57 29.359 57 31.014zm-.573 39.453a99.712 99.712 0 0 1-4.113 1.886c-1.023.433-2.213.648-3.568.648-2.08 0-3.699-.62-4.854-1.851-1.154-1.236-1.731-2.804-1.731-4.704 0-.736.042-1.493.13-2.264.086-.77.225-1.642.416-2.614l2.15-9.246c.19-.885.353-1.725.482-2.519.132-.788.196-1.513.196-2.167 0-1.18-.2-2.006-.601-2.47-.4-.465-1.164-.7-2.297-.7-.556 0-1.127.11-1.709.318-.584.21-.928-2.25-.928-2.25a48.22 48.22 0 0 1 4.039-1.788C45.325 40.25 46.54 40 47.69 40c2.066 0 3.661.608 4.78 1.823 1.12 1.215 1.68 2.791 1.68 4.735 0 .4-.037 1.109-.115 2.12a16.992 16.992 0 0 1-.431 2.79l-2.14 9.21a29.6 29.6 0 0 0-.469 2.537c-.141.946-.21 1.668-.21 2.153 0 1.223.225 2.057.675 2.502.452.444 1.232.665 2.34.665.52 0 1.111-.112 1.769-.333.657-.22.857 2.264.857 2.264z" fill-rule="evenodd"></path></svg><svg id="icons--lock" data-name="Layer 1" viewBox="-10 -10 40.57 44" width="40.57" height="44" y="856"><defs><style>.pcls-1{fill:#000100}</style></defs><title>lock</title><g id="plock-locked"><path id="pShape" class="pcls-1" d="M10.29 0a6.88 6.88 0 0 0-6.86 6.86v3.43H0V24h20.57V10.29h-3.43V6.86A6.88 6.88 0 0 0 10.29 0zm0 3.43a3.4 3.4 0 0 1 3.43 3.43v3.43H6.86V6.86a3.4 3.4 0 0 1 3.43-3.43z"></path></g></svg><svg width="49.43" height="52" viewBox="-35 -35 173 182" id="icons--logo" y="900"><title>logo</title><defs><linearGradient x1="-.025%" y1="50.068%" x2="99.975%" y2="50.068%" id="a"><stop stop-color="#783D8F" offset="0%"></stop><stop stop-color="#682782" offset="100%"></stop></linearGradient><linearGradient x1="38.156%" y1="-30.264%" x2="51.356%" y2="58.536%" id="b"><stop stop-color="#FFF" offset="0%"></stop><stop stop-color="#FFF" stop-opacity=".8" offset="100%"></stop></linearGradient><linearGradient x1="34.156%" y1="7.185%" x2="68.156%" y2="63.585%" id="c"><stop stop-color="#FFF" offset="0%"></stop><stop stop-color="#FFF" stop-opacity=".8" offset="100%"></stop></linearGradient><linearGradient x1="63.533%" y1="68.711%" x2="35.333%" y2="29.511%" id="d"><stop stop-color="#FFF" offset="0%"></stop><stop stop-color="#FFF" stop-opacity=".8" offset="100%"></stop></linearGradient><linearGradient x1="82.856%" y1="50.118%" x2="1.356%" y2="50.118%" id="e"><stop stop-color="#FFF" offset="0%"></stop><stop stop-color="#FFF" stop-opacity=".5" offset="100%"></stop></linearGradient><linearGradient x1="49.975%" y1="185.429%" x2="49.975%" y2="280.26%" id="f"><stop stop-color="#1E1E1C" offset="0%"></stop><stop stop-color="#1E1E1C" stop-opacity="0" offset="100%"></stop></linearGradient><linearGradient x1="-.925%" y1="49.911%" x2="99.675%" y2="49.911%" id="g"><stop stop-color="#FFF" offset="0%"></stop><stop stop-color="#FFF" stop-opacity=".8" offset="100%"></stop></linearGradient><linearGradient x1="-302.605%" y1="49.998%" x2="-206.716%" y2="49.998%" id="h"><stop stop-color="#1E1E1C" offset="0%"></stop><stop stop-color="#1E1E1C" stop-opacity="0" offset="100%"></stop></linearGradient></defs><g fill="none" fill-rule="evenodd"><path d="M43.1 56.5v8.8H22.3V22H43v8.8h21.6v-8.9L43 .4H22.2C20.6 2 1.5 21.2.7 22v43.5L22.3 87v-.1H43l21.6-21.6h.1v-8.8H43.1z" opacity=".61" fill="url(#a)"></path><path fill="url(#b)" d="M43.2 56.4h21.6v8.8H43.2z"></path><path fill="url(#c)" d="M.8 65.3l21.6 21.6v-65H.8z"></path><path fill="url(#d)" d="M64.7 65.2L43.1 86.8H22.4V65.2z"></path><path fill="url(#e)" d="M43.1 30.7h21.6v-9L43.1.3z"></path><path d="M54.6 103.3l3.5.4c-.1 2.4-.9 4.2-2.5 5.8-3.3 3.3-7.5 3.4-11.4-.6-.1-.1-.8-.9-.9-.9-4.4-4.6-3.1-8.9-.5-11.5 1.6-1.6 3.8-2.4 6.7-1.8l-.6 3.7c-4.1-.7-6.7 2.4-1.9 7.1 4.2 4.3 7.4 2.1 7.6-2.2zm15-8.2c-8.5-8.5-6.6-6.8-9.3-8.8l2.5-2.5 1.1.8c-.2-1.3.2-2.6 1.3-3.8 1.7-1.7 3.8-1.9 6 .3l6.2 6.2-3 3C68 83.9 67.6 83 66.6 84c-.7.7-.6 1.7.2 2.5l5.7 5.7-2.9 2.9zM77 82.2c1.8-.4 5-1.9 3.7-3.2-1.3-1.3-4.5 3.4-7.7.2-3.4-3.4.9-8.6 5.4-8.8l.3 3c-2.9.4-4 1.8-3.2 2.6 1.4 1.4 4.7-3.3 7.8-.2 3.8 3.9-1.8 8.6-5.2 9.2L77 82.2zM86.7 60c8.6 8.6 6.8 6.9 9.2 8.9l-2.5 2.5-1-.7-.1.1c.2 1.3-.3 2.5-1.3 3.4-2 2-4.1 1.9-6.2-.2l-6.1-6.1 3-3c6.5 6.5 6.8 7.3 7.9 6.2.6-.6.6-1.6-.1-2.3L83.7 63l3-3zm8.7 3.9c1.8-.4 5-1.9 3.7-3.2-1.3-1.3-4.5 3.4-7.7.2-3.4-3.4.9-8.6 5.4-8.8l.3 3c-2.9.4-4 1.8-3.2 2.6 1.4 1.4 4.7-3.3 7.8-.2 3.8 3.9-1.8 8.7-5.2 9.2l-1.1-2.8zM63.9 93.2l-4.7 4.7c2.5 2.3 4.9-.4 5.3-3l2.9 1.1c0 2-5.3 10.5-11.7 4.1-2.6-2.6-3.4-6.3-.4-9.4 3.2-3.1 6.8-1.4 8.6 2.5zm-6.3 3l2.4-2.4c-.8-1.1-1.7-1.8-2.7-.9-.9.9-.6 2.2.3 3.3z" fill="#FFF"></path><path d="M43.1.9H.7c10.5 3.9 30.8 4.4 42.4 0z" opacity=".47" transform="translate(0 21)" fill="url(#f)"></path><path fill="url(#g)" d="M43.1.3H22.3L.8 21.9h42.4z"></path><path d="M2.7 26.6C2.3 17.2 1.6 7.5.4 0v57.9c1.5-11.3 2.7-22.7 2.3-31.3z" opacity=".47" transform="translate(22 29)" fill="url(#h)"></path><path d="M9.4 64.9C8.6 64 8 63.1 8 62.3c0-.6.3-1.1 1.1-1.1.9 0 1.4.4 2.3 1.2l4.7 4.1h2v-9.3h-2.7v4.6l-2.8-2.5c-1.3-1.2-2.4-1.8-3.9-1.8-2.2 0-3.7 1.4-3.7 4.1 0 1.8.9 3.6 2.2 4.9l2.2-1.6zM4.9 51.3c0 2.9 2 4.9 6.6 4.9s6.7-1.6 6.7-4.8c0-3.1-1.9-4.9-6.7-4.9-4.6 0-6.6 1.8-6.6 4.8zm10.7.1c0 .9-1 1.5-3.8 1.5-3.2 0-4.1-.6-4.1-1.5s.9-1.5 3.9-1.5c3.2-.1 4 .6 4 1.5zm0-7.2h2.5v-7.6h-2.5v2.1H7.7l-2.5-.2v2.8l2.5 4.1 2.2-1.2-1-2.2h6.7v2.2zm-7.7-8.7v-4.8c3.1 2.9 6.4 3.2 8.7 3.2H18v-3.5h-1.3c-1.7 0-6.2-.1-9.4-4H5.1v9.1h2.8z" fill="#6D2D86"></path></g></svg><svg width="36" height="36" viewBox="-10 -10 36 36" id="icons--phone" y="952"><title>phone</title><path d="M16 13.332c0-.302-3.58-2.557-3.889-2.557-.31 0-1.348 1.247-1.629 1.385-.28.139-2.03.089-3.981-1.861S3.884 6.105 3.884 5.752c0-.353 1.627-1.441 1.672-1.697C5.6 3.799 3.41 0 3.056 0 2.7 0 0 3.281 0 3.555c0 .273.247 3.79 4.701 8.244 4.454 4.453 7.388 4.197 7.744 4.199.357.001 3.555-2.364 3.555-2.666z" fill-rule="evenodd"></path></svg><svg width="39.39" height="52" viewBox="-10.31 -10.31 40.63 53.63" id="icons--right-arrow" y="988"><title>right-arrow</title><path d="M.392 3.438l13.144 13.144L.392 29.726l3.25 3.25 16.393-16.393L3.642.19.392 3.44z"></path></svg><svg width="52" height="26.35" viewBox="-74.06 -74.06 385.13 195.13" id="logo" y="1040"><title>logo</title><defs><path id="a" d="M0 .737h236.997V47H0V.737z"></path><path id="c" d="M0 .737h236.997V47H0"></path><path id="e" d="M0 .737h236.997V47H0V.737z"></path></defs><g fill="none" fill-rule="evenodd"><path d="M.014 28.77c3.253-6.73 2.34-1.604.004-11.09-.002 3.826-.004 7.9-.004 11.09" fill="#A8BD39"></path><mask id="b" fill="#fff"><use xlink:href="#a"></use></mask><path d="M4.353.736C-2.921.717.54 16.296 3.165 23.04c2.426-3.824 5.329-7.298 8.872-10.324 7.014-6 16.46-10.155 29.276-11.98H4.353z" fill="#A8BD39" mask="url(#b)"></path><path d="M8.465 34.722a37.378 37.378 0 0 1-4.363-6.358c-1.57 2.97-2.905 6.161-4.077 9.538v9.022l29.3.053c-9.139-2.191-15.986-6.549-20.86-12.255" fill="#033E58"></path><mask id="d" fill="#fff"><use xlink:href="#c"></use></mask><path d="M46.15 3.663C31.487 5.059 21.475 9.239 14.303 15.361c-3.848 3.288-6.9 7.167-9.4 11.548 7.122 13.806 21.388 20.067 35.976 20.09 0 0 5.499.185 5.499-5.922V3.617c-.073.018-.149.038-.228.046" fill="#033E58" mask="url(#d)"></path><path d="M64.103 19.94c-3.417 0-4.485-3.594-4.485-6.864 0-3.316 1.174-6.935 4.485-6.935 3.308 0 4.462 3.619 4.462 6.935 0 3.27-1.024 6.865-4.462 6.865m0-15.1c-4.485 0-6.492 3.758-6.492 8.28 0 4.569 2.007 8.281 6.492 8.281 4.483 0 6.469-3.712 6.469-8.28 0-4.523-1.986-8.281-6.47-8.281M74.334 21.1h1.814V9.712h2.606V8.599h-2.606c0-2.084-.363-4.546 2.606-4.546v-1.16c-4.998-.5-4.42 4.43-4.42 5.706h-1.857v1.113h1.857V21.1zM86.251 8.6h-2.606c0-2.525-.193-4.547 2.606-4.547v-1.16c-5-.503-4.42 4.422-4.42 5.706h-1.858v1.113h1.858v11.389h1.814V9.712h2.606V8.6zm2.992-2.39c1.548 0 1.505-2.248 0-2.248-1.507 0-1.546 2.248 0 2.248" fill="#08446A"></path><mask id="f" fill="#fff"><use xlink:href="#e"></use></mask><path d="M88.325 21.1h1.836V8.6h-1.836v12.5zm12.279-1.764a3.974 3.974 0 0 1-2.22.674c-4.972 0-5.216-10.414.064-10.414 1.003 0 1.77.372 2.177.673l.47-1.113c-.534-.442-1.538-.858-3.054-.858-7.19 0-7.027 13.104-.062 13.104 1.514 0 2.582-.418 3.116-.859l-.49-1.207zm7.091-9.856c2.008 0 3.396 1.206 3.396 4.106l-7.112.974c-.02-3.504 1.687-5.08 3.716-5.08m-3.63 6.123l8.819-1.182c0-4.175-1.943-6.123-5.125-6.123-3.139 0-5.445 2.227-5.445 6.516 0 8.18 7.954 6.912 10.08 5.73l-.535-1.276c-2.343 1.272-7.375 1.62-7.794-3.665M127.11 8.6h-2.605c0-2.6-.164-4.547 2.605-4.547v-1.16c-4.995-.5-4.42 4.414-4.42 5.706h-1.859v1.113h1.858v11.389h1.816V9.712h2.605V8.6zm6.641 11.48c-2.668 0-3.524-2.645-3.524-5.22 0-2.573.791-5.334 3.524-5.334 2.734 0 3.523 2.761 3.523 5.335s-.789 5.218-3.523 5.218m0-11.781c-3.695 0-5.38 2.875-5.38 6.563 0 3.688 1.685 6.54 5.38 6.54s5.361-2.852 5.361-6.54-1.666-6.563-5.36-6.563m7.774.858V21.1h1.837V9.99c.79-.487 2.477-.533 3.63-.23l.47-1.44c-.905-.104-3.723-.095-5.937.836M68.245 42.362h-.043c-.442-.961-.507-.987-7.666-11.922H57.91v15.956h2.327c0-11.242.02-11.31-.064-12.546h.043c.485 1.024.376.786 8.007 12.546h2.285V30.44H68.16c0 10.656-.028 10.734.085 11.922m12.217 2.435c-1.248.615-5.168.988-5.168-1.995 0-2.413 2.072-2.992 5.168-3.317v5.312zm-6.897-10.322l.62 1.532c.79-.372 2.178-.72 3.394-.72 3.1 0 2.883 1.748 2.883 2.947-4.186.37-7.708 1.275-7.708 4.636 0 2.39 1.73 3.852 5.402 3.852 2.073 0 3.758-.37 4.826-.906v-7.908c0-5.499-6.459-4.68-9.417-3.433zm15.717-4.127l-2.669.742v2.806h-1.752v1.623h1.752v7.769c0 1.694 1.003 3.386 3.63 3.386.684 0 1.217-.139 1.474-.255v-1.646c-1.515.41-2.435-.382-2.435-1.624v-7.63h2.435v-1.623h-2.435v-3.548zm4.529 16.048h2.69v-12.5h-2.69v12.5zm1.345-17.44c-2.06 0-2.058 2.784 0 2.784s2.062-2.784 0-2.784m9.375 15.932c-2.264 0-2.99-2.32-2.99-4.754 0-2.435.685-4.848 2.99-4.848 2.306 0 2.988 2.413 2.988 4.848s-.682 4.754-2.988 4.754m0-11.317c-3.823 0-5.722 2.854-5.722 6.586 0 3.734 1.899 6.565 5.722 6.565 3.824 0 5.702-2.83 5.702-6.565 0-3.732-1.878-6.586-5.702-6.586m7.905.904v11.922h2.668V35.634c1.515-.616 5.062-.753 5.062 1.833v8.93h2.69V37.42c0-5.093-7.83-4.07-10.42-2.945m20.244 10.322c-1.256.62-5.168.983-5.168-1.995 0-2.413 2.072-2.992 5.168-3.317v5.312zm-6.896-10.322l.619 1.532c1.457-.686 6.277-1.748 6.277 1.507v.72c-4.186.37-7.708 1.275-7.708 4.636 0 2.39 1.73 3.852 5.403 3.852 2.07 0 3.759-.37 4.827-.906v-7.908c0-5.501-6.468-4.679-9.418-3.433zm12.174 11.921h2.67V28.19h-2.67v18.207zm14.182-11.852c0-2.722 3.418-3.13 5.658-1.785l.683-1.74c-3.551-2.094-9.141-.638-9.141 3.826 0 4.965 6.644 3.62 6.644 7.122 0 1.577-1.324 2.667-3.182 2.667-1.24 0-2.434-.394-3.075-.766l-.747 1.948c.875.487 2.434.906 4.354.906 3.268 0 5.594-2.111 5.594-4.942 0-5.288-6.788-3.802-6.788-7.236m12.602-4.196l-2.67.742v2.806h-1.75v1.623h1.75v7.769c0 1.694 1.004 3.386 3.63 3.386.683 0 1.218-.139 1.473-.255v-1.646c-.255.07-.469.115-.726.115-1.13 0-1.707-.764-1.707-1.739v-7.63h2.433v-1.623h-2.433v-3.548zm11.595 14.449c-.467.232-1.217.418-2.092.418-1.878 0-3.074-.721-3.074-2.413 0-2.413 2.07-2.992 5.166-3.317v5.312zm-2.391-11.226c-1.985 0-3.63.535-4.507.904l.62 1.532c.79-.372 2.178-.72 3.395-.72 3.1 0 2.883 1.75 2.883 2.947-4.184.37-7.708 1.275-7.708 4.636 0 2.39 1.729 3.852 5.402 3.852 2.072 0 3.757-.37 4.827-.906v-7.908c0-3.201-2.136-4.337-4.912-4.337zm11.212-3.223l-2.67.742v2.806h-1.75v1.623h1.75v7.769c0 1.694 1.005 3.386 3.631 3.386.684 0 1.218-.139 1.472-.255v-1.646c-1.505.411-2.433-.378-2.433-1.624v-7.63h2.433v-1.623h-2.433v-3.548zm5.872-1.392c-2.056 0-2.06 2.784 0 2.784 2.063 0 2.062-2.784 0-2.784m-1.344 17.44h2.692v-12.5h-2.692v12.5zm7.816-9.301c0-1.727 2.523-2.432 4.528-1.067l.704-1.553c-3.197-1.911-7.9-.712-7.9 2.761 0 4.081 5.489 2.69 5.489 5.659 0 2.162-3.423 2.437-5.19 1.204l-.706 1.717c.747.464 2.223.905 3.78.905 2.99 0 4.891-1.901 4.891-3.897 0-4.174-5.596-2.945-5.596-5.73m11.43-6.746l-2.67.742v2.806h-1.75v1.623h1.75v7.769c0 1.694 1.006 3.386 3.63 3.386.683 0 1.218-.139 1.473-.255v-1.646c-1.507.41-2.433-.378-2.433-1.624v-7.63h2.433v-1.623h-2.433v-3.548zm5.874-1.392c-2.059 0-2.062 2.784 0 2.784 2.06 0 2.064-2.784 0-2.784m-1.345 17.44h2.69v-12.5h-2.69v12.5zm11.04-1.599c-4.318 0-4.513-9.417.042-9.417.897 0 1.58.324 1.965.602l.598-1.507c-.598-.462-1.644-.904-3.203-.904-7.305 0-7.27 13.15-.02 13.15 1.6 0 2.689-.441 3.244-.905l-.662-1.646a3.378 3.378 0 0 1-1.964.627m6.899-7.702c0-1.735 2.536-2.427 4.527-1.067l.706-1.553c-.855-.51-1.986-.905-3.523-.905-2.714 0-4.378 1.81-4.378 3.666 0 4.081 5.487 2.69 5.487 5.659 0 2.162-3.42 2.436-5.189 1.204l-.705 1.717c.747.464 2.221.905 3.78.905 2.99 0 4.891-1.901 4.891-3.897 0-4.174-5.596-2.945-5.596-5.73" fill="#08446A" mask="url(#f)"></path></g></svg></svg>