<svg xmlns="http://www.w3.org/2000/svg" viewBox="0 0 366.19 121.84"><defs><style>.cls-1{opacity:0.1;}.cls-2{fill:#333;}.cls-3{fill:#fff;}.cls-4{fill:#033e58;}.cls-5{fill:#093;}.cls-6{fill:#a8bd3a;}.cls-7{fill:#999;}.cls-10,.cls-12,.cls-13,.cls-15,.cls-8,.cls-9{fill:none;stroke-miterlimit:10;}.cls-8{stroke:#eee;}.cls-9{stroke:#ccc;}.cls-10,.cls-12{stroke:#666;}.cls-11{fill:#ccc;}.cls-12{stroke-width:2px;}.cls-13{stroke:#fff;}.cls-14{fill:#f5f6ff;}.cls-15{stroke:#4263c2;}</style></defs><title>Asset 1</title><g id="Layer_2" data-name="Layer 2"><g id="Layer_1-2" data-name="Layer 1"><g class="cls-1"><rect class="cls-2" x="3.19" y="3" width="100" height="118.84"/></g><rect class="cls-3" x="0.19" width="100" height="118.84"/><rect class="cls-4" x="0.19" y="12" width="100" height="16"/><rect class="cls-5" x="7.67" y="86.94" width="21.09" height="5"/><rect class="cls-4" x="6.59" y="12" width="7.01" height="2.72"/><polygon class="cls-4" points="11.11 8.42 7.11 8.42 11.11 4.42 11.11 8.42"/><polygon class="cls-6" points="7.11 4.42 11.11 4.42 7.11 8.42 7.11 4.42"/><rect class="cls-4" x="12.11" y="7.42" width="8" height="1"/><rect class="cls-7" x="12.11" y="5.37" width="2.66" height="1"/><line class="cls-8" x1="7.11" y1="38.54" x2="91.43" y2="38.15"/><line class="cls-8" x1="7.11" y1="57.67" x2="91.43" y2="57.27"/><line class="cls-8" x1="50.19" y1="38.87" x2="50.19" y2="57.47"/><line class="cls-9" x1="7.67" y1="41.68" x2="37.67" y2="41.68"/><line class="cls-9" x1="7.67" y1="43.68" x2="26.67" y2="43.68"/><line class="cls-9" x1="7.67" y1="45.68" x2="31.67" y2="45.68"/><line class="cls-9" x1="53.67" y1="41.68" x2="78.67" y2="41.68"/><line class="cls-9" x1="53.67" y1="43.68" x2="83.67" y2="43.68"/><line class="cls-9" x1="53.67" y1="45.68" x2="73.67" y2="45.68"/><line class="cls-9" x1="53.67" y1="49.68" x2="72.67" y2="49.68"/><line class="cls-9" x1="53.67" y1="51.68" x2="78.67" y2="51.68"/><line class="cls-9" x1="53.67" y1="53.68" x2="88.67" y2="53.68"/><line class="cls-9" x1="7.67" y1="49.68" x2="25.67" y2="49.68"/><line class="cls-9" x1="7.67" y1="51.68" x2="32.67" y2="51.68"/><line class="cls-9" x1="7.67" y1="53.68" x2="44.67" y2="53.68"/><line class="cls-9" x1="7.67" y1="69.68" x2="40.67" y2="69.68"/><line class="cls-9" x1="7.67" y1="71.68" x2="42.67" y2="71.68"/><line class="cls-9" x1="7.67" y1="73.68" x2="29.67" y2="73.68"/><line class="cls-9" x1="7.67" y1="75.68" x2="38.67" y2="75.68"/><line class="cls-9" x1="7.67" y1="77.68" x2="36.67" y2="77.68"/><line class="cls-9" x1="7.67" y1="79.68" x2="44.67" y2="79.68"/><line class="cls-10" x1="7.67" y1="32.68" x2="50.67" y2="32.68"/><line class="cls-10" x1="7.67" y1="34.68" x2="28.67" y2="34.68"/><line class="cls-10" x1="7.67" y1="63.68" x2="50.67" y2="63.68"/><line class="cls-10" x1="7.67" y1="65.68" x2="28.67" y2="65.68"/><rect class="cls-11" y="106.56" width="100.41" height="11.26"/><line class="cls-10" x1="7.67" y1="112.68" x2="28.67" y2="112.68"/><line class="cls-10" x1="29.67" y1="112.68" x2="39.67" y2="112.68"/><path class="cls-7" d="M99.19,1V117.84h-98V1h98m1-1H.19V118.84h100V0Z"/><g class="cls-1"><rect class="cls-2" x="135.19" y="3" width="100" height="107"/></g><rect class="cls-3" x="132.19" width="100" height="103.3"/><rect class="cls-4" x="132.31" y="12" width="99.76" height="6"/><rect class="cls-5" x="139.67" y="77.94" width="21.09" height="5"/><rect class="cls-4" x="138.59" y="12" width="7.01" height="2.72"/><polygon class="cls-4" points="143.11 8.42 139.11 8.42 143.11 4.42 143.11 8.42"/><polygon class="cls-6" points="139.11 4.42 143.11 4.42 139.11 8.42 139.11 4.42"/><rect class="cls-4" x="144.11" y="7.42" width="8" height="1"/><rect class="cls-7" x="144.11" y="5.37" width="2.66" height="1"/><line class="cls-12" x1="139.67" y1="27.18" x2="176.67" y2="27.18"/><line class="cls-10" x1="139.67" y1="33.68" x2="182.67" y2="33.68"/><line class="cls-10" x1="139.67" y1="35.68" x2="160.67" y2="35.68"/><rect class="cls-11" x="132.31" y="94.56" width="99.76" height="11.26"/><line class="cls-10" x1="139.67" y1="100.68" x2="160.67" y2="100.68"/><line class="cls-10" x1="161.67" y1="100.68" x2="171.67" y2="100.68"/><path class="cls-7" d="M231.07,1V105.56H133.31V1h97.76m1-1H132.31V106.56h99.76V0Z"/><line class="cls-13" x1="139.17" y1="14.73" x2="147.17" y2="14.73"/><line class="cls-13" x1="151.17" y1="14.73" x2="155.17" y2="14.73"/><line class="cls-13" x1="148.17" y1="14.73" x2="150.17" y2="14.73"/><rect class="cls-14" x="139.89" y="39.11" width="57.03" height="17"/><rect class="cls-4" x="139.89" y="39.11" width="1" height="17"/><line class="cls-10" x1="143.67" y1="42.68" x2="154.67" y2="42.68"/><line class="cls-9" x1="143.67" y1="46.68" x2="164.67" y2="46.68"/><line class="cls-9" x1="139.67" y1="61.68" x2="153.67" y2="61.68"/><line class="cls-9" x1="143.67" y1="48.68" x2="182.67" y2="48.68"/><line class="cls-9" x1="143.67" y1="50.68" x2="174.67" y2="50.68"/><rect class="cls-8" x="139.89" y="64.42" width="20.78" height="4" rx="0.5" ry="0.5"/><line class="cls-15" x1="139.57" y1="23.46" x2="145.17" y2="23.46"/><line class="cls-15" x1="139.57" y1="85.46" x2="145.17" y2="85.46"/><g class="cls-1"><rect class="cls-2" x="266.19" y="3" width="100" height="88"/></g><rect class="cls-3" x="263.19" width="100" height="84.3"/><rect class="cls-4" x="263.31" y="12" width="99.76" height="6"/><rect class="cls-5" x="270.67" y="56.94" width="21.09" height="5"/><rect class="cls-4" x="269.59" y="12" width="7.01" height="2.72"/><polygon class="cls-4" points="274.11 8.42 270.11 8.42 274.11 4.42 274.11 8.42"/><polygon class="cls-6" points="270.11 4.42 274.11 4.42 270.11 8.42 270.11 4.42"/><rect class="cls-4" x="275.11" y="7.42" width="8" height="1"/><rect class="cls-7" x="275.11" y="5.37" width="2.66" height="1"/><line class="cls-12" x1="270.67" y1="27.18" x2="307.67" y2="27.18"/><line class="cls-10" x1="270.67" y1="33.68" x2="313.67" y2="33.68"/><line class="cls-10" x1="270.67" y1="35.68" x2="291.67" y2="35.68"/><rect class="cls-11" x="263.31" y="75.56" width="99.76" height="11.26"/><line class="cls-10" x1="270.67" y1="81.68" x2="291.67" y2="81.68"/><line class="cls-10" x1="292.67" y1="81.68" x2="302.67" y2="81.68"/><path class="cls-7" d="M362.07,1V86.56H264.31V1h97.76m1-1H263.31V87.56h99.76V0Z"/><line class="cls-13" x1="270.17" y1="14.73" x2="278.17" y2="14.73"/><line class="cls-13" x1="282.17" y1="14.73" x2="286.17" y2="14.73"/><line class="cls-13" x1="279.17" y1="14.73" x2="281.17" y2="14.73"/><line class="cls-15" x1="270.57" y1="23.46" x2="276.17" y2="23.46"/><line class="cls-15" x1="270.57" y1="64.46" x2="276.17" y2="64.46"/><line class="cls-9" x1="270.67" y1="39.68" x2="303.67" y2="39.68"/><line class="cls-9" x1="270.67" y1="41.68" x2="305.67" y2="41.68"/><line class="cls-9" x1="270.67" y1="43.68" x2="292.67" y2="43.68"/><line class="cls-9" x1="270.67" y1="45.68" x2="301.67" y2="45.68"/><path class="cls-3" d="M25.23,22.46H41.75v2H25.23Z"/><path class="cls-3" d="M7.47,22.46h8v2h-8Z"/><path class="cls-3" d="M17.47,22.46h6v2h-6Z"/><path class="cls-3" d="M43.75,22.46H58.49v2H43.75Z"/></g></g></svg>