<svg width="420" height="36" xmlns="http://www.w3.org/2000/svg"><g fill-rule="nonzero" fill="#000"><path d="M.28 20.3c.54-1.08.94-1.91 1.55-2.93a24.3 24.3 0 0 1-1.55-4.23v7.17zM3.62.1S.28.1.28 4.1v.63c.41 3.68 1.36 7.3 2.81 10.72a28.48 28.48 0 0 1 6.3-6.9C14.7 4.06 21.1 1.45 30.94.1H3.62z"/><path d="M35.69 2.04c-11.25 1.06-18.94 4.2-24.45 8.83a27.36 27.36 0 0 0-6.7 7.85c4.33 8.23 13.11 15.14 26.85 16.02h.27a4.16 4.16 0 0 0 3.13-1.29 4 4 0 0 0 1.08-3.16V2.02l-.18.02zM6.76 25.47a28.4 28.4 0 0 1-3.35-4.79 50.39 50.39 0 0 0-3.13 7.2v6.8h20.74a27.91 27.91 0 0 1-14.26-9.21zM51.32 28.97c-1.92.05-3.81-.33-5.54-1.1l.78-1.72c1.35.64 2.85.98 4.37.98 1.25.1 2.49-.3 3.42-1.07a4.17 4.17 0 0 0 1.54-3.04c0-5.16-9.72-3-9.72-9.46.05-1.63.8-3.16 2.1-4.25a6.64 6.64 0 0 1 4.76-1.5A10.7 10.7 0 0 1 58 8.92l-.72 1.6a8.44 8.44 0 0 0-3.95-.97c-1.16-.11-2.3.24-3.16.97a3.7 3.7 0 0 0-1.34 2.84c0 4.9 9.81 2.74 9.81 9.51.04 3.56-3.06 6.1-7.32 6.1zM77.35 28.97h-2.13l-3.66-12.05c-.21-.64-.37-1.3-.47-1.97-.08.67-.22 1.33-.42 1.97l-3.8 12.05h-2.16l-5.08-16.36h2.52l3.35 12.03c.17.68.28 1.38.35 2.08.1-.7.25-1.4.45-2.08L70 12.6h2.2l3.58 12.03c.22.68.4 1.37.55 2.08.1-.7.24-1.4.42-2.08l3.39-12.03h2.25l-5.03 16.36zM90.02 35.7H87.4l2.9-6.57-5.94-16.52h2.57l3.89 12.16c.22.74.4 1.49.55 2.24 0 0 .25-1.14.61-2.24l4.03-12.16h2.2l-8.2 23.1zM107.75 29.92c-5.03 0-7.56-3.18-7.56-8.22 0-5.43 3.04-8.76 7.56-8.76 1 0 2 .11 2.98.35V5.87h2.32V28.8a10.9 10.9 0 0 1-5.3 1.12zm2.98-15.23c-.81-.2-1.65-.3-2.48-.3-4.16 0-5.69 3.5-5.69 7 0 4.14 1.55 6.85 5.33 6.85.98.04 1.96-.18 2.84-.63V14.7zM124.59 29.92c-5.04 0-7.59-3.18-7.59-8.22 0-5.43 3.06-8.76 7.59-8.76 1 0 1.99.11 2.95.35V5.87h2.32V28.8c-1.64.82-3.45 1.2-5.27 1.12zm2.95-15.23c-.81-.2-1.65-.3-2.49-.3-4.16 0-5.69 3.5-5.69 7 0 4.14 1.55 6.85 5.35 6.85.97.03 1.94-.18 2.82-.63l.01-12.92zM137.43 14.94v15h-2.28v-15h-2.32v-1.47h2.32v-2.41c-.1-1.43.4-2.83 1.38-3.83.97-1 2.32-1.49 3.68-1.33h.53v1.61h-.26a2.8 2.8 0 0 0-2.2.95c-.58.63-.86 1.5-.78 2.37v2.66h3.24v1.47l-3.31-.02zM149.57 29.93c-4.72 0-6.85-1.93-6.85-4.88 0-4.5 4.8-5.77 10.54-6.28V17.7c0-2.67-1.84-3.56-4.38-3.56-1.55.06-3.06.42-4.45 1.07l-.64-1.46a14 14 0 0 1 5.5-1.14c3.44 0 6.3 1.35 6.3 5.34v10.82a13.9 13.9 0 0 1-6.02 1.16zm3.67-9.86c-4.91.55-8.12 1.37-8.12 4.93 0 2.45 1.83 3.56 4.7 3.56 1.17.03 2.35-.2 3.42-.68v-7.81zM171.78 20.19v8.78h-3.73v-8.78l-6.53-11.43h3.99l4.54 8.63 4.68-8.53h3.6zM184.52 29.93a11 11 0 0 1-5.2-1.2l.97-2.25c1.12.63 2.4.97 3.7.97a3.05 3.05 0 0 0 3.38-2.57c0-3.9-7.55-2.07-7.55-7.43a5.5 5.5 0 0 1 6.03-4.82c1.7-.04 3.38.37 4.84 1.19l-.96 2.03a6.02 6.02 0 0 0-3.16-.94c-1.85 0-3.07 1.1-3.07 2.36 0 3.65 7.7 2.04 7.7 7.53.05 2.69-2.57 5.13-6.68 5.13zM199.15 29.9a4.2 4.2 0 0 1-4.69-4.37V15.47h-2.28v-2.1h2.27V9.73l3.48-.98v4.6h3.16v2.11h-3.16v9.87a2.1 2.1 0 0 0 2.21 2.26c.32 0 .64-.06.95-.15v2.12a4.9 4.9 0 0 1-1.94.33zM211.35 29.92c-4.98 0-7.3-1.94-7.3-5.09 0-4.45 4.77-5.64 10.44-6.14v-.87c0-2.28-1.59-2.95-3.9-2.95-1.59.02-3.15.34-4.6.96l-.84-2.03c1.93-.78 4-1.19 6.1-1.2 3.75 0 6.65 1.5 6.65 5.74v10.44c-2.07.85-4.3 1.24-6.55 1.14zm3.12-9.57c-4.2.42-7 1.19-7 4.37 0 2.25 1.62 3.2 4.16 3.2.97.02 1.94-.16 2.84-.55v-7.02zM228.43 29.91c-5.52 0-8.55-3.04-8.55-8.33s3.33-8.65 8.13-8.65c1.02-.01 2.04.1 3.03.33V5.87h3.68V28.8a14.12 14.12 0 0 1-6.29 1.12zm2.61-14.77a9.13 9.13 0 0 0-2.19-.25c-3.67 0-5.24 3.01-5.24 6.48 0 3.96 1.45 6.3 4.93 6.3.86.02 1.72-.16 2.5-.5V15.14zM241.12 22.54a4.8 4.8 0 0 0 1.52 3.6c1 .93 2.35 1.4 3.72 1.3 1.61.03 3.21-.29 4.69-.93l.86 2.21a13.37 13.37 0 0 1-5.85 1.21c-5.1 0-8.37-3.07-8.37-8.7 0-5.64 3.03-8.62 7.65-8.62 4.61 0 7.18 2.89 7.18 8.42l-11.4 1.5zm4.07-7.79c-2.44 0-4.38 1.92-4.29 6.01l8.2-1.13c-.06-3.39-1.59-4.88-3.96-4.88h.05zM261.1 35.7c-2.04.04-4.07-.35-5.96-1.13l.91-2.17c1.45.6 3 .91 4.58.9 2.99 0 4.28-1.52 4.28-3.73v-1.05c-1.11.49-2.32.71-3.53.65-4.16 0-6.88-3.03-6.88-7.85 0-5.14 2.8-8.7 8.3-8.7 1.91-.06 3.81.33 5.55 1.14V29.2c-.07 4.24-2.96 6.52-7.24 6.52zm3.81-20.57a5.18 5.18 0 0 0-2.36-.5c-3.1 0-4.62 2.51-4.62 6.56 0 4.04 1.53 6.06 4.47 6.06.87.02 1.72-.16 2.51-.53V15.13zM278.62 29.92c-4.97 0-7.3-1.94-7.3-5.09 0-4.45 4.78-5.64 10.43-6.14v-.87c0-2.28-1.58-2.95-3.9-2.95-1.58.02-3.13.34-4.58.96l-.84-2.03c1.93-.78 4-1.19 6.1-1.2 3.75 0 6.64 1.5 6.64 5.74v10.44a15.4 15.4 0 0 1-6.55 1.14zm3.17-9.5c-4.18.43-6.99 1.19-6.99 4.37 0 2.25 1.63 3.2 4.16 3.2.98.03 1.94-.16 2.83-.55v-7.02zM295.04 29.91c-4.8 0-6.9-2.11-6.9-5.52V13.57h3.64v11.07c-.04.86.33 1.69 1 2.27a3.2 3.2 0 0 0 2.48.73 7.28 7.28 0 0 0 3.08-.55V13.57h3.64v15.24c-2.2.84-4.57 1.22-6.94 1.1zM322.27 28.96c-6.23 0-10.4-3.76-10.4-10.7 0-6.58 4.55-10.45 10.57-10.45 2.02-.09 4.03.3 5.85 1.15l-.93 2.16c-1.4-.55-2.91-.82-4.43-.77-4.11 0-7.15 2.43-7.15 8.07 0 5.31 2.82 8.09 6.35 8.09a7.23 7.23 0 0 0 2.96-.48v-6.88h-3.78v-2.19h7.38V27.8a14.68 14.68 0 0 1-6.42 1.17zM349.53 29.93h-3.23l-3.2-10.68c-.2-.7-.35-1.4-.43-2.12-.09.72-.23 1.43-.42 2.12l-3.33 10.68h-3.22l-5.03-16.36h3.52l2.87 10.93c.18.75.3 1.5.38 2.26.1-.76.27-1.52.48-2.26l3.27-10.93h3.07l3.15 10.93c.2.74.34 1.5.44 2.26.08-.76.21-1.52.4-2.26l2.96-10.93h3.2l-4.88 16.36zM357.38 28.97V5.87h3.95v23.1zM371.6 29.92c-4.98 0-7.3-1.94-7.3-5.09 0-4.45 4.78-5.64 10.44-6.14v-.87c0-2.28-1.59-2.95-3.9-2.95-1.59.02-3.15.35-4.6.96l-.84-2.03a16.3 16.3 0 0 1 6.1-1.2c3.77 0 6.65 1.5 6.65 5.74v10.44a15.4 15.4 0 0 1-6.55 1.14zm3.12-9.57c-4.2.42-6.99 1.19-6.99 4.37 0 2.24 1.6 3.2 4.16 3.2.97.02 1.94-.16 2.83-.55v-7.02zM388.66 29.91c-5.52 0-8.53-3.04-8.53-8.33s3.3-8.65 8.13-8.65c1.02-.01 2.04.1 3.03.33V5.87h3.68V28.8a14.2 14.2 0 0 1-6.31 1.12zm2.63-14.77a9.25 9.25 0 0 0-2.19-.25c-3.68 0-5.24 3.01-5.24 6.48 0 3.96 1.45 6.3 4.91 6.3a6.1 6.1 0 0 0 2.52-.5V15.14zM405.37 29.93c-4.97 0-7.44-3.74-7.44-8.65s2.47-8.67 7.44-8.67c4.97 0 7.4 3.76 7.4 8.67s-2.45 8.65-7.4 8.65zm0-15.07c-3 0-3.88 3.18-3.88 6.38 0 3.21.94 6.28 3.88 6.28s3.88-3.07 3.88-6.28c0-3.2-.92-6.3-3.88-6.3v-.08zM415.74 28.97V5.87h3.96v23.1z"/></g></svg>