<?xml version="1.0" encoding="UTF-8"?>
<svg width="408px" height="36px" viewBox="0 0 408 36" version="1.1" xmlns="http://www.w3.org/2000/svg" xmlns:xlink="http://www.w3.org/1999/xlink">
    <!-- Generator: Sketch 50.2 (55047) - http://www.bohemiancoding.com/sketch -->
    <title>PageTemplates/Elements/ONSLogoBlack Copy</title>
    <desc>Created with Sketch.</desc>
    <defs></defs>
    <g id="Page-1" stroke="none" stroke-width="1" fill="none" fill-rule="evenodd">
        <g id="Powered-by-ONS-footers" transform="translate(-216.000000, -733.000000)" fill="#000000">
            <g id="PageTemplates/Elements/Footer-Copy-3" transform="translate(-2.000000, 703.000000)">
                <g id="PageTemplates/Elements/ONSLogoBlack" transform="translate(218.000000, 30.000000)">
                    <g id="ONS-Logo-Landscape-black">
                        <g id="ONS" transform="translate(45.800000, 5.400000)" fill-rule="nonzero">
                            <path d="M9.18,24.84 C3.24,24.84 0.54,19.8 0.54,13.68 C0.54,7.56 3.24,2.52 9.18,2.52 C15.12,2.52 17.82,7.56 17.82,13.68 C17.82,19.8 15.12,24.84 9.18,24.84 Z M9.18,4.32 C4.68,4.32 3.24,9.18 3.24,13.68 C3.24,18 4.68,22.86 9.18,22.86 C13.86,22.86 15.12,18 15.12,13.68 C15.12,9.18 13.68,4.32 9.18,4.32 Z" id="Shape"></path>
                            <path d="M25.38,9.18 L25.38,24.48 L23.04,24.48 L23.04,9.18 L20.52,9.18 L20.52,7.74 L23.04,7.74 L23.04,5.4 C23.04,2.34 24.84,0.18 28.44,0.18 C28.62,0.18 28.98,0.18 28.98,0.18 L28.98,1.8 L28.62,1.8 C27,1.8 25.38,2.88 25.38,5.22 L25.38,7.92 L28.8,7.92 L28.8,9.36 L25.38,9.36 L25.38,9.18 Z" id="Shape"></path>
                            <path d="M35.28,9.18 L35.28,24.48 L32.94,24.48 L32.94,9.18 L30.42,9.18 L30.42,7.74 L32.94,7.74 L32.94,5.4 C32.94,2.34 34.74,0.18 38.34,0.18 C38.52,0.18 38.88,0.18 38.88,0.18 L38.88,1.8 L38.52,1.8 C36.9,1.8 35.28,2.88 35.28,5.22 L35.28,7.92 L38.7,7.92 L38.7,9.36 L35.28,9.36 L35.28,9.18 Z" id="Shape"></path>
                            <path d="M42.84,4.5 C41.94,4.5 41.22,3.78 41.22,3.06 C41.22,2.34 41.94,1.62 42.84,1.62 C43.74,1.62 44.46,2.34 44.46,3.06 C44.46,3.78 43.74,4.5 42.84,4.5 Z M41.58,24.48 L41.58,7.74 L44.1,7.74 L44.1,24.48 L41.58,24.48 Z" id="Shape"></path>
                            <path d="M54.54,24.84 C50.58,24.84 47.52,21.42 47.52,16.02 C47.52,10.62 50.58,7.2 54.72,7.2 C56.7,7.2 58.14,7.74 58.86,8.28 L58.32,9.72 C57.78,9.36 56.7,8.82 55.44,8.82 C52.02,8.82 50.22,11.7 50.22,15.66 C50.22,19.8 52.2,22.68 55.26,22.68 C56.52,22.68 57.6,22.32 58.14,21.78 L58.86,23.4 C57.96,24.3 56.52,24.84 54.54,24.84 Z" id="Shape"></path>
                            <path d="M62.64,17.1 C63,21.06 65.16,23.04 68.58,23.04 C70.56,23.04 72.18,22.5 73.08,21.96 L73.8,23.58 C72.72,24.12 70.74,24.66 68.4,24.66 C63.72,24.66 60.3,21.78 60.3,15.84 C60.3,10.08 63.36,7.2 67.5,7.2 C71.82,7.2 74.34,9.72 74.34,15.48 L62.64,17.1 Z M67.5,8.82 C64.8,8.82 62.46,10.98 62.46,15.66 L72,14.4 C72,10.44 70.2,8.82 67.5,8.82 Z" id="Shape"></path>
                            <path d="M86.22,9.18 L86.22,24.48 L83.88,24.48 L83.88,9.18 L81.36,9.18 L81.36,7.74 L83.88,7.74 L83.88,5.4 C83.88,2.34 85.68,0.18 89.28,0.18 C89.46,0.18 89.82,0.18 89.82,0.18 L89.82,1.8 L89.46,1.8 C87.84,1.8 86.22,2.88 86.22,5.22 L86.22,7.92 L89.64,7.92 L89.64,9.36 L86.22,9.36 L86.22,9.18 Z" id="Shape"></path>
                            <path d="M98.64,24.84 C93.78,24.84 91.44,21.06 91.44,16.02 C91.44,11.16 93.78,7.2 98.64,7.2 C103.5,7.2 105.84,10.98 105.84,16.02 C105.84,21.06 103.5,24.84 98.64,24.84 Z M98.64,9 C95.04,9 93.96,12.78 93.96,16.2 C93.96,19.62 95.04,23.22 98.64,23.22 C102.24,23.22 103.32,19.62 103.32,16.2 C103.32,12.6 102.24,9 98.64,9 Z" id="Shape"></path>
                            <path d="M116.28,9.18 C114.66,8.82 112.5,8.82 111.42,9.54 L111.42,24.48 L108.9,24.48 L108.9,8.46 C110.7,7.74 112.5,7.38 115.56,7.38 C115.92,7.38 116.64,7.38 116.82,7.38 L116.28,9.18 Z" id="Shape"></path>
                            <path d="M138.42,24.66 L128.88,10.08 C128.16,9 127.62,7.92 127.62,7.92 C127.62,7.92 127.62,9.18 127.62,10.44 L127.62,24.66 L124.56,24.66 L124.56,3.24 L128.16,3.24 L137.16,16.92 C137.88,18.18 138.42,19.08 138.42,19.08 C138.42,19.08 138.24,17.82 138.24,16.56 L138.24,3.06 L141.3,3.06 L141.3,24.48 L138.42,24.48 L138.42,24.66 Z" id="Shape"></path>
                            <path d="M151.74,25.02 C146.88,25.02 144.54,23.04 144.54,19.8 C144.54,15.3 149.22,14.04 154.8,13.68 L154.8,12.6 C154.8,10.26 153.18,9.54 151.02,9.54 C149.4,9.54 147.6,10.08 146.52,10.44 L145.62,8.46 C146.88,7.92 149.04,7.2 151.56,7.2 C155.34,7.2 158.22,8.64 158.22,12.96 L158.22,23.58 C156.78,24.48 154.44,25.02 151.74,25.02 Z M154.8,15.3 C150.66,15.66 147.96,16.56 147.96,19.8 C147.96,22.14 149.58,23.04 152.1,23.04 C153.36,23.04 154.26,22.86 154.98,22.5 L154.98,15.3 L154.8,15.3 Z" id="Shape"></path>
                            <path d="M167.76,25.02 C164.16,25.02 162.9,22.68 162.9,20.52 L162.9,10.08 L160.56,10.08 L160.56,7.92 L162.9,7.92 L162.9,4.14 L166.5,3.06 L166.5,7.74 L169.74,7.74 L169.74,9.9 L166.5,9.9 L166.5,20.16 C166.5,21.42 167.22,22.5 168.84,22.5 C169.2,22.5 169.38,22.5 169.74,22.32 L169.74,24.48 C169.38,24.84 168.66,25.02 167.76,25.02 Z" id="Shape"></path>
                            <path d="M174.42,4.86 C173.34,4.86 172.26,3.96 172.26,3.06 C172.26,1.98 173.16,1.26 174.42,1.26 C175.5,1.26 176.58,2.16 176.58,3.06 C176.58,4.14 175.5,4.86 174.42,4.86 Z M172.62,24.66 L172.62,7.92 L176.22,7.92 L176.22,24.66 L172.62,24.66 Z" id="Shape"></path>
                            <path d="M187.02,25.02 C181.98,25.02 179.28,21.24 179.28,16.2 C179.28,11.16 181.8,7.38 187.02,7.38 C192.06,7.38 194.58,11.16 194.58,16.2 C194.58,21.24 192.06,25.02 187.02,25.02 Z M187.02,9.72 C183.96,9.72 183.06,12.96 183.06,16.2 C183.06,19.44 183.96,22.5 187.02,22.5 C190.08,22.5 190.98,19.44 190.98,16.2 C190.98,12.96 190.08,9.72 187.02,9.72 Z" id="Shape"></path>
                            <path d="M207.9,24.66 L207.9,12.6 C207.9,10.44 206.1,9.72 203.94,9.72 C202.86,9.72 201.78,9.9 201.06,10.26 L201.06,24.66 L197.46,24.66 L197.46,8.64 C199.08,7.92 201.42,7.38 204.12,7.38 C208.44,7.38 211.32,8.82 211.32,12.6 L211.32,24.66 L207.9,24.66 Z" id="Shape"></path>
                            <path d="M221.58,25.02 C216.72,25.02 214.38,23.04 214.38,19.8 C214.38,15.3 219.06,14.04 224.64,13.68 L224.64,12.6 C224.64,10.26 223.02,9.54 220.86,9.54 C219.24,9.54 217.44,10.08 216.36,10.44 L215.46,8.46 C216.54,7.92 218.88,7.2 221.4,7.2 C225.18,7.2 228.06,8.64 228.06,12.96 L228.06,23.58 C226.62,24.48 224.28,25.02 221.58,25.02 Z M224.64,15.3 C220.5,15.66 217.8,16.56 217.8,19.8 C217.8,22.14 219.42,23.04 221.94,23.04 C223.02,23.04 224.1,22.86 224.82,22.5 L224.82,15.3 L224.64,15.3 Z" id="Shape"></path>
                            <polygon id="Shape" points="231.66 24.66 231.66 16.56 231.66 0.18 235.26 0.18 235.26 8.46 235.26 24.48 231.66 24.48"></polygon>
                            <path d="M249.48,25.02 C246.96,25.02 244.8,24.48 243.72,23.76 L244.8,21.06 C245.7,21.6 247.32,22.14 248.94,22.14 C251.46,22.14 253.26,20.7 253.26,18.54 C253.26,13.86 244.44,15.66 244.44,9 C244.44,5.58 247.14,2.7 251.46,2.7 C253.8,2.7 255.6,3.24 256.68,3.96 L255.78,6.3 C255.06,5.76 253.44,5.22 252,5.22 C249.66,5.22 248.22,6.66 248.22,8.64 C248.22,13.32 257.22,11.16 257.22,18.36 C256.86,22.14 253.8,25.02 249.48,25.02 Z" id="Shape"></path>
                            <path d="M266.04,25.02 C262.44,25.02 261.18,22.68 261.18,20.52 L261.18,10.08 L258.84,10.08 L258.84,7.92 L261.18,7.92 L261.18,4.14 L264.78,3.06 L264.78,7.74 L268.02,7.74 L268.02,9.9 L264.6,9.9 L264.6,20.16 C264.6,21.42 265.32,22.5 266.94,22.5 C267.3,22.5 267.48,22.5 267.84,22.32 L267.84,24.48 C267.66,24.84 266.94,25.02 266.04,25.02 Z" id="Shape"></path>
                            <path d="M277.02,25.02 C272.16,25.02 269.82,23.04 269.82,19.8 C269.82,15.3 274.5,14.04 280.08,13.68 L280.08,12.6 C280.08,10.26 278.46,9.54 276.3,9.54 C274.68,9.54 272.88,10.08 271.8,10.44 L270.9,8.46 C272.16,7.92 274.32,7.2 276.84,7.2 C280.62,7.2 283.32,8.64 283.32,12.96 L283.32,23.58 C282.06,24.48 279.9,25.02 277.02,25.02 Z M280.26,15.3 C276.12,15.66 273.42,16.56 273.42,19.8 C273.42,22.14 275.04,23.04 277.56,23.04 C278.82,23.04 279.72,22.86 280.44,22.5 L280.44,15.3 L280.26,15.3 Z" id="Shape"></path>
                            <path d="M293.22,25.02 C289.62,25.02 288.36,22.68 288.36,20.52 L288.36,10.08 L286.02,10.08 L286.02,7.92 L288.36,7.92 L288.36,4.14 L291.96,3.06 L291.96,7.74 L295.2,7.74 L295.2,9.9 L291.96,9.9 L291.96,20.16 C291.96,21.42 292.68,22.5 294.3,22.5 C294.66,22.5 294.84,22.5 295.2,22.32 L295.2,24.48 C294.84,24.84 294.12,25.02 293.22,25.02 Z" id="Shape"></path>
                            <path d="M299.88,4.86 C298.8,4.86 297.72,3.96 297.72,3.06 C297.72,1.98 298.62,1.26 299.88,1.26 C300.96,1.26 302.04,2.16 302.04,3.06 C301.86,4.14 300.96,4.86 299.88,4.86 Z M298.08,24.66 L298.08,7.92 L301.68,7.92 L301.68,24.66 L298.08,24.66 Z" id="Shape"></path>
                            <path d="M309.42,25.02 C307.26,25.02 305.28,24.48 304.38,23.76 L305.28,21.42 C306,21.96 307.44,22.5 308.88,22.5 C310.68,22.5 312.12,21.24 312.12,19.98 C312.12,16.02 304.74,17.82 304.74,12.42 C304.74,9.9 306.9,7.56 310.68,7.56 C312.66,7.56 314.28,8.1 315.36,8.82 L314.46,10.98 C313.92,10.62 312.84,10.08 311.4,10.08 C309.6,10.08 308.34,11.16 308.34,12.42 C308.34,16.2 315.9,14.58 315.9,20.16 C315.9,22.5 313.38,25.02 309.42,25.02 Z" id="Shape"></path>
                            <path d="M325.08,25.02 C321.48,25.02 320.22,22.68 320.22,20.52 L320.22,10.08 L317.88,10.08 L317.88,7.92 L320.22,7.92 L320.22,4.14 L323.82,3.06 L323.82,7.74 L327.06,7.74 L327.06,9.9 L323.82,9.9 L323.82,20.16 C323.82,21.42 324.54,22.5 326.16,22.5 C326.52,22.5 326.7,22.5 327.06,22.32 L327.06,24.48 C326.7,24.84 325.98,25.02 325.08,25.02 Z" id="Shape"></path>
                            <path d="M331.56,4.86 C330.48,4.86 329.4,3.96 329.4,3.06 C329.4,1.98 330.3,1.26 331.56,1.26 C332.64,1.26 333.72,2.16 333.72,3.06 C333.72,4.14 332.82,4.86 331.56,4.86 Z M329.76,24.66 L329.76,7.92 L333.36,7.92 L333.36,24.66 L329.76,24.66 Z" id="Shape"></path>
                            <path d="M343.8,25.02 C339.66,25.02 336.6,21.6 336.6,16.2 C336.6,10.62 339.84,7.38 343.8,7.38 C345.96,7.38 347.22,7.92 348.12,8.64 L347.4,10.62 C346.86,10.26 345.96,9.9 344.7,9.9 C341.82,9.9 340.2,12.42 340.2,16.2 C340.2,19.98 342,22.5 344.52,22.5 C345.6,22.5 346.5,22.14 347.22,21.6 L348.12,23.76 C347.4,24.48 345.96,25.02 343.8,25.02 Z" id="Shape"></path>
                            <path d="M354.78,25.02 C352.62,25.02 350.64,24.48 349.74,23.76 L350.64,21.42 C351.36,21.96 352.8,22.5 354.24,22.5 C356.04,22.5 357.48,21.24 357.48,19.98 C357.48,16.02 350.1,17.82 350.1,12.42 C350.1,9.9 352.26,7.56 356.04,7.56 C358.02,7.56 359.64,8.1 360.72,8.82 L359.82,10.98 C359.28,10.62 358.2,10.08 356.76,10.08 C354.96,10.08 353.7,11.16 353.7,12.42 C353.7,16.2 361.26,14.58 361.26,20.16 C361.26,22.5 358.74,25.02 354.78,25.02 Z" id="Shape"></path>
                        </g>
                        <g id="Icon" fill-rule="nonzero">
                            <path d="M0.26,20.88 C0.8,19.8 1.16,18.9 1.88,17.82 C1.16,16.2 0.8,15.3 0.26,13.5 C0.26,16.38 0.26,18.36 0.26,20.88 Z M3.68,0 C3.68,0 0.44,0 0.44,4.14 C0.44,4.32 0.44,3.6 0.44,4.86 C0.8,8.64 1.88,12.42 3.32,15.84 C5.12,12.96 6.92,10.98 9.62,8.82 C15.02,4.14 21.32,1.44 31.22,0.18 L3.68,0.18 L3.68,0 Z" id="Shape"></path>
                            <path d="M35.72,2.16 C24.38,3.24 16.82,6.48 11.24,11.16 C8.36,13.68 6.38,15.84 4.58,19.08 C8.9,27.54 17.72,34.56 31.4,35.46 L31.58,35.46 C31.58,35.46 35.72,35.64 35.72,30.96 L35.72,2.16 C35.9,2.16 35.72,2.16 35.72,2.16 Z M6.74,26.1 C5.48,24.66 4.4,22.86 3.32,21.24 C2.06,23.58 1.16,25.92 0.26,28.62 C0.26,32.58 0.26,35.64 0.26,35.64 L20.96,35.64 C14.48,33.48 10.52,30.42 6.74,26.1 Z" id="Shape"></path>
                        </g>
                    </g>
                </g>
            </g>
        </g>
    </g>
</svg>