<?xml version="1.0" encoding="UTF-8"?>
<svg width="420px" height="36px" viewBox="0 0 420 36" version="1.1" xmlns="http://www.w3.org/2000/svg" xmlns:xlink="http://www.w3.org/1999/xlink">
    <!-- Generator: Sketch 50.2 (55047) - http://www.bohemiancoding.com/sketch -->
    <title>PageTemplates/Elements/ONSLogoBlack</title>
    <desc>Created with Sketch.</desc>
    <defs></defs>
    <g id="Page-1" stroke="none" stroke-width="1" fill="none" fill-rule="evenodd">
        <g id="Powered-by-ONS-footers" transform="translate(-216.000000, -1439.000000)" fill="#000000">
            <g id="PageTemplates/Elements/Footer-Copy-2" transform="translate(-2.000000, 1409.000000)">
                <g id="PageTemplates/Elements/ONSLogoLandscapeWelshBlack" transform="translate(218.000000, 30.000000)">
                    <g id="ONS-Logo-Landscape-Welsh-black" transform="translate(0.280000, 0.097297)">
                        <path d="M0,20.2115404 C0.541144652,19.1275305 0.937984063,18.288297 1.55128133,17.2742231 C0.903209676,15.9122308 0.383986809,14.4960452 0,13.0430875 L0,20.2115404 Z M3.33705868,0 C3.33705868,0 1.77635684e-15,0 1.77635684e-15,4.00384322 L1.77635684e-15,4.63326835 C0.413579024,8.31628315 1.36088873,11.9243729 2.81395219,15.3509797 C4.50725524,12.7297204 6.63411972,10.3964722 9.1092683,8.44478722 C14.430524,3.96887515 20.8340691,1.36375446 30.6648636,0 L3.33705868,0 Z" id="Shape" fill-rule="nonzero"></path>
                        <path d="M35.4097746,1.94257707 C24.1585752,3.00268431 16.4717558,6.14766913 10.9631686,10.7768041 C8.24576317,12.9527623 5.9733889,15.6147108 4.26645479,18.6215977 C8.58691534,26.8550973 17.3718518,33.7634628 31.107316,34.6468855 L31.3773447,34.6468855 C32.5619078,34.6782031 33.702918,34.2077032 34.5092476,33.3554335 C35.3155772,32.5031638 35.7092402,31.3515536 35.5897938,30.1944351 L35.5897938,1.92490861 L35.4097746,1.94257707 Z M6.48069082,25.3709471 C5.20086323,23.89134 4.07888425,22.2869098 3.1323339,20.5827961 C1.90181228,22.8974007 0.854608929,25.3015196 0,27.7738569 L0,34.5762117 L20.7382106,34.5762117 C15.1218069,33.0467126 10.1354041,29.8272776 6.48069082,25.3709471 Z" id="Shape" fill-rule="nonzero"></path>
                        <path d="M51.0374783,28.8689017 C49.124576,28.9208892 47.226302,28.5434622 45.5027008,27.7684418 L46.2775696,26.0489732 C47.6316449,26.6926996 49.1299852,27.028555 50.6500438,27.0290703 C51.8995186,27.1237081 53.1362187,26.7383413 54.0733588,25.9623345 C55.0104989,25.1863278 55.5666685,24.087094 55.6128943,22.9195405 C55.6128943,17.7611348 45.8901352,19.9276652 45.8901352,13.4624634 C45.9350239,11.8366892 46.6961635,10.2998634 47.994579,9.21335633 C49.2929945,8.12684929 51.0141239,7.58652595 52.7532593,7.71943841 C54.4813636,7.68408682 56.1902454,8.06301338 57.7161097,8.81989829 L56.9965886,10.419004 C55.7939494,9.77886025 54.433402,9.44111436 53.0484474,9.43890697 C51.8937659,9.33171951 50.7444929,9.6860529 49.8861886,10.4138658 C49.0278844,11.1416787 48.541115,12.1746537 48.5468284,13.2561272 C48.5468284,18.1566126 58.3618338,15.9900822 58.3618338,22.7647883 C58.3987323,26.3240882 55.2992569,28.8689017 51.0374783,28.8689017 Z" id="Shape" fill-rule="nonzero"></path>
                        <path d="M77.0740048,28.8736292 L74.9437939,28.8736292 L71.2770375,16.8268922 C71.0695803,16.1826499 70.9119611,15.5231515 70.8055974,14.8543271 C70.7266536,15.5234997 70.5863672,16.1838479 70.3865396,16.8268922 L66.5975579,28.8736292 L64.4324256,28.8736292 L59.3513489,12.511906 L61.8656961,12.511906 L65.2181591,24.5410308 C65.3850263,25.2241819 65.5017474,25.9188097 65.567374,26.619269 C65.667384,25.9161234 65.8191294,25.2214593 66.0213534,24.5410308 L69.7055705,12.511906 L71.9056243,12.511906 L75.485077,24.5410308 C75.7079494,25.2232261 75.8944641,25.9169644 76.0438209,26.619269 C76.1398422,25.9182893 76.2798086,25.2241521 76.4628787,24.5410308 L79.8502632,12.511906 L82.1026993,12.511906 L77.0740048,28.8736292 Z" id="Shape" fill-rule="nonzero"></path>
                        <path d="M89.7385453,35.6108093 L87.1180618,35.6108093 L90.0162125,29.031445 L84.0810776,12.511906 L86.6494985,12.511906 L90.5368383,24.6748389 C90.7621596,25.4106127 90.9475547,26.158604 91.0921726,26.9153792 C91.0921726,26.9153792 91.3351313,25.777327 91.6995694,24.6748389 L95.7257428,12.511906 L97.9297256,12.511906 L89.7385453,35.6108093 Z" id="Shape" fill-rule="nonzero"></path>
                        <path d="M107.472492,29.8262081 C102.435297,29.8262081 99.9081039,26.6403495 99.9081039,21.5989908 C99.9081039,16.1725282 102.951051,12.8466318 107.472492,12.8466318 C108.474191,12.8395005 109.472992,12.9570705 110.446671,13.1967262 L110.446671,5.77472584 L112.767563,5.77472584 L112.767563,28.7059062 C111.12063,29.5192806 109.301331,29.9041978 107.472492,29.8262081 Z M110.446671,14.5971036 C109.635437,14.4013795 108.804748,14.301527 107.971053,14.2995234 C103.81064,14.2995234 102.280571,17.800467 102.280571,21.3014106 C102.280571,25.432524 103.827832,28.1457552 107.610026,28.1457552 C108.592246,28.1782224 109.566998,27.9616782 110.446671,27.5155854 L110.446671,14.5971036 Z" id="Shape" fill-rule="nonzero"></path>
                        <path d="M124.305899,29.8265422 C119.268704,29.8265422 116.724319,26.6406393 116.724319,21.5992105 C116.724319,16.1726726 119.784458,12.8467301 124.305899,12.8467301 C125.301993,12.8383692 126.295253,12.9559685 127.262887,13.1968293 L127.262887,5.77472584 L129.583778,5.77472584 L129.583778,28.7062247 C127.942487,29.5181604 126.129096,29.9030828 124.305899,29.8265422 Z M127.262887,14.5972262 C126.446221,14.399216 125.609578,14.29934 124.770077,14.2996418 C120.609664,14.2996418 119.079595,17.800634 119.079595,21.3016262 C119.079595,25.432797 120.626856,28.1460659 124.426241,28.1460659 C125.402753,28.1763542 126.371424,27.9598457 127.245695,27.5158873 L127.262887,14.5972262 Z" id="Shape" fill-rule="nonzero"></path>
                        <path d="M137.147918,14.8426225 L137.147918,29.8360835 L134.874888,29.8360835 L134.874888,14.8426225 L132.551346,14.8426225 L132.551346,13.3716328 L134.874888,13.3716328 L134.874888,10.9613365 C134.76612,9.53288388 135.269022,8.12792571 136.246247,7.13016491 C137.223472,6.1324041 138.572927,5.64608019 139.926067,5.80401129 L140.464859,5.80401129 L140.464859,7.4167831 L140.195463,7.4167831 C139.365409,7.38220211 138.561615,7.7266756 137.990572,8.36171066 C137.419528,8.99674572 137.136891,9.86044883 137.215267,10.7309405 L137.215267,13.3893556 L140.464859,13.3893556 L140.464859,14.8603453 L137.147918,14.8426225 Z" id="Shape" fill-rule="nonzero"></path>
                        <path d="M149.294288,29.8292288 C144.568162,29.8292288 142.443237,27.9070593 142.443237,24.9526137 C142.443237,20.4497538 147.242637,19.1861054 152.97627,18.6699673 L152.97627,17.6020954 C152.97627,14.9324156 151.144438,14.0425224 148.598192,14.0425224 C147.0549,14.0992583 145.539949,14.4626926 144.146841,15.1103943 L143.5057,13.6509693 C145.23654,12.9055115 147.107929,12.5176247 149.001195,12.511906 C152.445039,12.511906 155.302696,13.8645437 155.302696,17.8512655 L155.302696,28.6723675 C153.416972,29.4983355 151.361705,29.8940574 149.294288,29.8292288 Z M152.957952,19.9692115 C148.048642,20.5209453 144.842937,21.3396471 144.842937,24.8992201 C144.842937,27.3553255 146.674769,28.4587932 149.532426,28.4587932 C150.713066,28.497582 151.886533,28.2658984 152.957952,27.7824743 L152.957952,19.9692115 Z" id="Shape" fill-rule="nonzero"></path>
                        <polygon id="Shape" fill-rule="nonzero" points="171.500404 20.0897108 171.500404 28.8736292 167.773469 28.8736292 167.773469 20.0897108 161.237831 8.66208876 165.234833 8.66208876 169.77197 17.2925018 169.77197 17.2925018 174.453144 8.76442567 178.054047 8.76442567"></polygon>
                        <path d="M184.236098,29.8346523 C182.425797,29.8637357 180.637919,29.449121 179.043236,28.6304106 L180.007624,26.3813119 C181.13072,27.0165117 182.411502,27.3528404 183.716812,27.355331 C185.387056,27.5216949 186.888792,26.3792218 187.092172,24.7874625 C187.092172,20.8913862 179.543976,22.7154583 179.543976,17.3494986 C179.818603,14.431569 182.515059,12.2766303 185.571405,12.5325315 C187.268985,12.4911368 188.945096,12.9019959 190.411895,13.7190638 L189.447506,15.7556492 C188.513439,15.158822 187.418465,14.8328453 186.294697,14.8170489 C184.440103,14.8170489 183.216071,15.9150341 183.216071,17.1724042 C183.216071,20.8205484 190.912635,19.2089896 190.912635,24.6989153 C190.968273,27.3907499 188.353296,29.8346523 184.236098,29.8346523 Z" id="Shape" fill-rule="nonzero"></path>
                        <path d="M198.871542,29.8070287 C197.645188,29.9520302 196.41722,29.5495161 195.514337,28.7065749 C194.611455,27.8636336 194.125219,26.6657473 194.184992,25.4316125 L194.184992,15.3733846 L191.902695,15.3733846 L191.902695,13.2641202 L194.16757,13.2641202 L194.16757,9.63827725 L197.651994,8.66208876 L197.651994,13.2641202 L200.805397,13.2641202 L200.805397,15.3733846 L197.651994,15.3733846 L197.651994,25.2398612 C197.600153,25.8460499 197.814649,26.4447858 198.239566,26.8799846 C198.664482,27.3151833 199.25771,27.5437184 199.864603,27.506013 C200.183905,27.4971113 200.500468,27.4443211 200.805397,27.3491256 L200.805397,29.4758219 C200.189719,29.7156596 199.531893,29.828324 198.871542,29.8070287 Z" id="Shape" fill-rule="nonzero"></path>
                        <path d="M211.07133,29.8214165 C206.090195,29.8214165 203.772964,27.8823244 203.772964,24.7335234 C203.772964,20.2860643 208.535148,19.0941453 214.209627,18.5960299 L214.209627,17.724328 C214.209627,15.4472289 212.622232,14.7712152 210.305001,14.7712152 C208.721835,14.7880413 207.158259,15.1147182 205.707031,15.7318663 L204.867719,13.703825 C206.798974,12.9197512 208.869862,12.5147174 210.961854,12.511906 C214.720512,12.511906 217.621613,14.0062522 217.621613,18.2402332 L217.621613,28.682867 C215.5514,29.5299846 213.314245,29.9188399 211.07133,29.8214165 Z M214.191381,20.2504847 C209.994821,20.6774407 207.18495,21.4424037 207.18495,24.6267844 C207.18495,26.8683037 208.808837,27.8289548 211.345018,27.8289548 C212.323437,27.8467873 213.294293,27.6586832 214.191381,27.2774699 L214.191381,20.2504847 Z" id="Shape" fill-rule="nonzero"></path>
                        <path d="M228.149674,29.8175493 C222.633749,29.8175493 219.599991,26.7706074 219.599991,21.4822369 C219.599991,16.1938664 222.927932,12.8317236 227.726786,12.8317236 C228.748635,12.821996 229.767763,12.9337637 230.760545,13.1644356 L230.760545,5.77472584 L234.437828,5.77472584 L234.437828,28.696835 C232.465948,29.5436781 230.309648,29.9279876 228.149674,29.8175493 Z M230.760545,15.0381298 C230.045042,14.8685927 229.309842,14.786216 228.572562,14.7929735 C224.895278,14.7929735 223.332433,17.8048932 223.332433,21.272103 C223.332433,25.2296253 224.78496,27.5761208 228.259992,27.5761208 C229.123196,27.5899884 229.978366,27.4163166 230.760545,27.0682971 L230.760545,15.0381298 Z" id="Shape" fill-rule="nonzero"></path>
                        <path d="M240.836421,22.4399287 C240.80737,23.7980506 241.36009,25.105272 242.358677,26.0401763 C243.357264,26.9750805 244.709085,27.450941 246.081758,27.3507543 C247.694779,27.3730713 249.293785,27.0526145 250.770227,26.4111378 L251.632474,28.6272144 C249.799406,29.4653513 247.796099,29.8777554 245.776379,29.83276 C240.674749,29.83276 237.405396,26.7657101 237.405396,21.1280114 C237.405396,15.4903128 240.441224,12.511906 245.057839,12.511906 C249.674455,12.511906 252.243233,15.4016697 252.243233,20.9329967 L240.836421,22.4399287 Z M244.914132,14.657068 C242.471098,14.657068 240.531042,16.5717581 240.620859,20.6670675 L248.812207,19.5324364 C248.758317,16.1462715 247.231421,14.657068 244.860241,14.657068 L244.914132,14.657068 Z" id="Shape" fill-rule="nonzero"></path>
                        <path d="M260.827674,35.6087877 C258.781122,35.6423679 256.749408,35.2572917 254.858133,34.4773645 L255.769907,32.3002321 C257.218004,32.9080393 258.77469,33.2171151 260.345982,33.2087992 C263.339354,33.2087992 264.629601,31.6830921 264.629601,29.4716741 L264.629601,28.4259648 C263.520118,28.9109884 262.313152,29.1339315 261.102927,29.0773903 C256.939731,29.0773903 254.221611,26.0431191 254.221611,21.2259992 C254.221611,16.0831666 257.025747,12.5174693 262.513597,12.5174693 C264.430678,12.4596528 266.334423,12.8531582 268.070259,13.6660353 L268.070259,29.0945331 C268.001446,33.3287986 265.111293,35.6087877 260.827674,35.6087877 Z M264.629601,15.0374573 C263.894341,14.6887934 263.086723,14.5184392 262.272751,14.5403168 C259.176158,14.5403168 257.645066,17.043162 257.645066,21.088857 C257.645066,25.134552 259.176158,27.1573995 262.117921,27.1573995 C262.985124,27.1761933 263.844882,26.9942841 264.629601,26.6259734 L264.629601,15.0374573 Z" id="Shape" fill-rule="nonzero"></path>
                        <path d="M278.336192,29.8202691 C273.373303,29.8202691 271.037827,27.8813055 271.037827,24.7327132 C271.037827,20.285549 275.818256,19.093709 281.474489,18.5956266 L281.474489,17.7239824 C281.474489,15.4470344 279.887094,14.7710654 277.569863,14.7710654 C275.992798,14.7897838 274.435569,15.1164093 272.990139,15.7316529 L272.150827,13.703746 C274.082082,12.9197242 276.15297,12.5147172 278.244962,12.511906 C282.00362,12.511906 284.886475,14.0061532 284.886475,18.2398535 L284.886475,28.6817951 C282.817483,29.532883 280.579389,29.9218757 278.336192,29.8202691 Z M281.510981,20.3211263 C277.332667,20.7480541 274.522796,21.5129664 274.522796,24.6971359 C274.522796,26.9385067 276.146682,27.8990942 278.682864,27.8990942 C279.655621,27.919465 280.621088,27.7312106 281.510981,27.3476458 L281.510981,20.3211263 Z" id="Shape" fill-rule="nonzero"></path>
                        <path d="M294.760144,29.8167982 C289.967783,29.8167982 287.854042,27.6986529 287.854042,24.2889556 L287.854042,13.4743603 L291.498423,13.4743603 L291.498423,24.547266 C291.463762,25.4043346 291.830905,26.232211 292.501809,26.8098193 C293.172714,27.3874275 294.079056,27.6559449 294.978807,27.5436667 C296.036383,27.5848319 297.089868,27.3963157 298.058309,26.9926045 L298.058309,13.4743603 L301.70269,13.4743603 L301.70269,28.7146738 C299.500211,29.5526582 297.131461,29.9286956 294.760144,29.8167982 Z" id="Shape" fill-rule="nonzero"></path>
                        <path d="M321.993366,28.8595751 C315.757731,28.8595751 311.594582,25.1064387 311.594582,18.1657071 C311.594582,11.5848652 316.139505,7.71176554 322.156983,7.71176554 C324.179728,7.62345485 326.193347,8.01842104 328.010844,8.85998534 L327.08368,11.0193241 C325.679925,10.4682658 324.167764,10.2053696 322.647835,10.2481317 C318.539224,10.2481317 315.503215,12.6816722 315.503215,18.3199456 C315.503215,23.6326044 318.321068,26.408897 321.847928,26.408897 C322.861193,26.4576786 323.873307,26.2937842 324.811218,25.929044 L324.811218,19.0568627 L321.029842,19.0568627 L321.029842,16.8632488 L328.410797,16.8632488 L328.410797,27.6942177 C326.399791,28.5564267 324.200236,28.9558493 321.993366,28.8595751 Z" id="Shape" fill-rule="nonzero"></path>
                        <path d="M349.254897,29.8360835 L346.016751,29.8360835 L342.813802,19.1515961 C342.610562,18.4603189 342.469214,17.752272 342.391435,17.0358561 C342.303704,17.7507002 342.162519,18.4579352 341.969068,19.1515961 L338.642929,29.8360835 L335.422381,29.8360835 L330.389175,13.4743603 L333.9089,13.4743603 L336.777475,24.405684 C336.959151,25.1479297 337.088527,25.9020512 337.164644,26.6624734 C337.267622,25.899562 337.426437,25.1452664 337.639807,24.405684 L340.913151,13.4743603 L343.975311,13.4743603 L347.125464,24.405684 C347.323279,25.1470241 347.470277,25.901045 347.565429,26.6624734 C347.647679,25.9016774 347.782931,25.1475749 347.970198,24.405684 L350.926766,13.4743603 L354.129715,13.4743603 L349.254897,29.8360835 Z" id="Shape" fill-rule="nonzero"></path>
                        <polygon id="Shape" fill-rule="nonzero" points="357.097282 28.8736292 357.097282 5.77472584 361.054039 5.77472584 361.054039 28.8736292"></polygon>
                        <path d="M371.319972,29.8202691 C366.338837,29.8202691 364.021606,27.8813055 364.021606,24.7327132 C364.021606,20.285549 368.802036,19.093709 374.458269,18.5956266 L374.458269,17.7239824 C374.458269,15.4470344 372.870874,14.7710654 370.553643,14.7710654 C368.97097,14.7921736 367.408252,15.1186496 365.955673,15.7316529 L365.116361,13.703746 C367.053567,12.9183262 369.130702,12.5133101 371.228742,12.511906 C374.9874,12.511906 377.870255,14.0061532 377.870255,18.2398535 L377.870255,28.6817951 C375.801263,29.532883 373.563169,29.9218757 371.319972,29.8202691 Z M374.440023,20.2499717 C370.243463,20.6768995 367.451838,21.4418117 367.451838,24.6259813 C367.451838,26.8673521 369.057478,27.8279395 371.611906,27.8279395 C372.584454,27.8460132 373.549417,27.6578571 374.440023,27.2764912 L374.440023,20.2499717 Z" id="Shape" fill-rule="nonzero"></path>
                        <path d="M388.37993,29.8175209 C382.864005,29.8175209 379.848633,26.7705826 379.848633,21.4822183 C379.848633,16.1938541 383.158188,12.8317152 387.975428,12.8317152 C388.997216,12.8230737 390.016204,12.9348259 391.009187,13.1644269 L391.009187,5.77472584 L394.68647,5.77472584 L394.68647,28.696808 C392.708137,29.5437961 390.545854,29.9280478 388.37993,29.8175209 Z M391.009187,15.0381189 C390.293473,14.8696843 389.55842,14.7873241 388.821204,14.7929629 C385.14392,14.7929629 383.581075,17.804879 383.581075,21.2720847 C383.581075,25.2296023 385.033602,27.576095 388.490248,27.576095 C389.359084,27.587185 390.219592,27.4137049 391.009187,27.068272 L391.009187,15.0381189 Z" id="Shape" fill-rule="nonzero"></path>
                        <path d="M405.090454,29.8360835 C400.121178,29.8360835 397.654037,26.0946286 397.654037,21.1828607 C397.654037,16.2710929 400.121178,12.511906 405.090454,12.511906 C410.059729,12.511906 412.491875,16.2710929 412.491875,21.1828607 C412.491875,26.0946286 410.042232,29.8360835 405.090454,29.8360835 Z M405.090454,14.7638717 C402.09839,14.7638717 401.20602,17.9379022 401.20602,21.1473967 C401.20602,24.3568912 402.150882,27.4245296 405.090454,27.4245296 C408.030025,27.4245296 408.974887,24.3568912 408.974887,21.1473967 C408.974887,17.9379022 408.047523,14.8347998 405.090454,14.8347998 L405.090454,14.7638717 Z" id="Shape" fill-rule="nonzero"></path>
                        <polygon id="Shape" fill-rule="nonzero" points="415.459442 28.8736292 415.459442 5.77472584 419.416199 5.77472584 419.416199 28.8736292"></polygon>
                    </g>
                </g>
            </g>
        </g>
    </g>
</svg>