<svg width="408" height="36" xmlns="http://www.w3.org/2000/svg"><g fill-rule="nonzero" fill="#000"><path d="M54.98 30.24c-5.94 0-8.64-5.04-8.64-11.16s2.7-11.16 8.64-11.16 8.64 5.04 8.64 11.16-2.7 11.16-8.64 11.16zm0-20.52c-4.5 0-5.94 4.86-5.94 9.36 0 4.32 1.44 9.18 5.94 9.18 4.68 0 5.94-4.86 5.94-9.18 0-4.5-1.44-9.36-5.94-9.36zM71.18 14.58v15.3h-2.34v-15.3h-2.52v-1.44h2.52V10.8c0-3.06 1.8-5.22 5.4-5.22h.54V7.2h-.36c-1.62 0-3.24 1.08-3.24 3.42v2.7h3.42v1.44h-3.42v-.18zM81.08 14.58v15.3h-2.34v-15.3h-2.52v-1.44h2.52V10.8c0-3.06 1.8-5.22 5.4-5.22h.54V7.2h-.36c-1.62 0-3.24 1.08-3.24 3.42v2.7h3.42v1.44h-3.42v-.18zM88.64 9.9c-.9 0-1.62-.72-1.62-1.44s.72-1.44 1.62-1.44c.9 0 1.62.72 1.62 1.44s-.72 1.44-1.62 1.44zm-1.26 19.98V13.14h2.52v16.74h-2.52zM100.34 30.24c-3.96 0-7.02-3.42-7.02-8.82s3.06-8.82 7.2-8.82c1.98 0 3.42.54 4.14 1.08l-.54 1.44a5.43 5.43 0 0 0-2.88-.9c-3.42 0-5.22 2.88-5.22 6.84 0 4.14 1.98 7.02 5.04 7.02 1.26 0 2.34-.36 2.88-.9l.72 1.62c-.9.9-2.34 1.44-4.32 1.44zM108.44 22.5c.36 3.96 2.52 5.94 5.94 5.94 1.98 0 3.6-.54 4.5-1.08l.72 1.62a12.86 12.86 0 0 1-5.4 1.08c-4.68 0-8.1-2.88-8.1-8.82 0-5.76 3.06-8.64 7.2-8.64 4.32 0 6.84 2.52 6.84 8.28l-11.7 1.62zm4.86-8.28c-2.7 0-5.04 2.16-5.04 6.84l9.54-1.26c0-3.96-1.8-5.58-4.5-5.58zM132.02 14.58v15.3h-2.34v-15.3h-2.52v-1.44h2.52V10.8c0-3.06 1.8-5.22 5.4-5.22h.54V7.2h-.36c-1.62 0-3.24 1.08-3.24 3.42v2.7h3.42v1.44h-3.42v-.18zM144.44 30.24c-4.86 0-7.2-3.78-7.2-8.82 0-4.86 2.34-8.82 7.2-8.82s7.2 3.78 7.2 8.82c0 5.04-2.34 8.82-7.2 8.82zm0-15.84c-3.6 0-4.68 3.78-4.68 7.2 0 3.42 1.08 7.02 4.68 7.02 3.6 0 4.68-3.6 4.68-7.02 0-3.6-1.08-7.2-4.68-7.2zM162.08 14.58c-1.62-.36-3.78-.36-4.86.36v14.94h-2.52V13.86c1.8-.72 3.6-1.08 6.66-1.08h1.26l-.54 1.8zM184.22 30.06l-9.54-14.58c-.72-1.08-1.26-2.16-1.26-2.16V30.06h-3.06V8.64h3.6l9 13.68c.72 1.26 1.26 2.16 1.26 2.16s-.18-1.26-.18-2.52V8.46h3.06v21.42h-2.88v.18zM197.54 30.42c-4.86 0-7.2-1.98-7.2-5.22 0-4.5 4.68-5.76 10.26-6.12V18c0-2.34-1.62-3.06-3.78-3.06-1.62 0-3.42.54-4.5.9l-.9-1.98a15.42 15.42 0 0 1 5.94-1.26c3.78 0 6.66 1.44 6.66 5.76v10.62c-1.44.9-3.78 1.44-6.48 1.44zm3.06-9.72c-4.14.36-6.84 1.26-6.84 4.5 0 2.34 1.62 3.24 4.14 3.24 1.26 0 2.16-.18 2.88-.54v-7.2h-.18zM213.56 30.42c-3.6 0-4.86-2.34-4.86-4.5V15.48h-2.34v-2.16h2.34V9.54l3.6-1.08v4.68h3.24v2.16h-3.24v10.26c0 1.26.72 2.34 2.34 2.34.36 0 .54 0 .9-.18v2.16c-.36.36-1.08.54-1.98.54zM220.22 10.26c-1.08 0-2.16-.9-2.16-1.8 0-1.08.9-1.8 2.16-1.8 1.08 0 2.16.9 2.16 1.8 0 1.08-1.08 1.8-2.16 1.8zm-1.8 19.8V13.32h3.6v16.74h-3.6zM232.82 30.42c-5.04 0-7.74-3.78-7.74-8.82 0-5.04 2.52-8.82 7.74-8.82 5.04 0 7.56 3.78 7.56 8.82 0 5.04-2.52 8.82-7.56 8.82zm0-15.3c-3.06 0-3.96 3.24-3.96 6.48s.9 6.3 3.96 6.3 3.96-3.06 3.96-6.3c0-3.24-.9-6.48-3.96-6.48zM253.7 30.06V18c0-2.16-1.8-2.88-3.96-2.88-1.08 0-2.16.18-2.88.54v14.4h-3.6V14.04a16.86 16.86 0 0 1 6.66-1.26c4.32 0 7.2 1.44 7.2 5.22v12.06h-3.42zM267.38 30.42c-4.86 0-7.2-1.98-7.2-5.22 0-4.5 4.68-5.76 10.26-6.12V18c0-2.34-1.62-3.06-3.78-3.06-1.62 0-3.42.54-4.5.9l-.9-1.98a14.64 14.64 0 0 1 5.94-1.26c3.78 0 6.66 1.44 6.66 5.76v10.62c-1.44.9-3.78 1.44-6.48 1.44zm3.06-9.72c-4.14.36-6.84 1.26-6.84 4.5 0 2.34 1.62 3.24 4.14 3.24 1.08 0 2.16-.18 2.88-.54v-7.2h-.18zM277.46 30.06V5.58h3.6V29.88h-3.6zM295.28 30.42c-2.52 0-4.68-.54-5.76-1.26l1.08-2.7c.9.54 2.52 1.08 4.14 1.08 2.52 0 4.32-1.44 4.32-3.6 0-4.68-8.82-2.88-8.82-9.54 0-3.42 2.7-6.3 7.02-6.3 2.34 0 4.14.54 5.22 1.26l-.9 2.34a7.24 7.24 0 0 0-3.78-1.08c-2.34 0-3.78 1.44-3.78 3.42 0 4.68 9 2.52 9 9.72-.36 3.78-3.42 6.66-7.74 6.66zM311.84 30.42c-3.6 0-4.86-2.34-4.86-4.5V15.48h-2.34v-2.16h2.34V9.54l3.6-1.08v4.68h3.24v2.16h-3.42v10.26c0 1.26.72 2.34 2.34 2.34.36 0 .54 0 .9-.18v2.16c-.18.36-.9.54-1.8.54zM322.82 30.42c-4.86 0-7.2-1.98-7.2-5.22 0-4.5 4.68-5.76 10.26-6.12V18c0-2.34-1.62-3.06-3.78-3.06-1.62 0-3.42.54-4.5.9l-.9-1.98a15.42 15.42 0 0 1 5.94-1.26c3.78 0 6.48 1.44 6.48 5.76v10.62c-1.26.9-3.42 1.44-6.3 1.44zm3.24-9.72c-4.14.36-6.84 1.26-6.84 4.5 0 2.34 1.62 3.24 4.14 3.24 1.26 0 2.16-.18 2.88-.54v-7.2h-.18zM339.02 30.42c-3.6 0-4.86-2.34-4.86-4.5V15.48h-2.34v-2.16h2.34V9.54l3.6-1.08v4.68H341v2.16h-3.24v10.26c0 1.26.72 2.34 2.34 2.34.36 0 .54 0 .9-.18v2.16c-.36.36-1.08.54-1.98.54zM345.68 10.26c-1.08 0-2.16-.9-2.16-1.8 0-1.08.9-1.8 2.16-1.8 1.08 0 2.16.9 2.16 1.8a2.14 2.14 0 0 1-2.16 1.8zm-1.8 19.8V13.32h3.6v16.74h-3.6zM355.22 30.42c-2.16 0-4.14-.54-5.04-1.26l.9-2.34a6.57 6.57 0 0 0 3.6 1.08c1.8 0 3.24-1.26 3.24-2.52 0-3.96-7.38-2.16-7.38-7.56 0-2.52 2.16-4.86 5.94-4.86 1.98 0 3.6.54 4.68 1.26l-.9 2.16a5.6 5.6 0 0 0-3.06-.9c-1.8 0-3.06 1.08-3.06 2.34 0 3.78 7.56 2.16 7.56 7.74 0 2.34-2.52 4.86-6.48 4.86zM370.88 30.42c-3.6 0-4.86-2.34-4.86-4.5V15.48h-2.34v-2.16h2.34V9.54l3.6-1.08v4.68h3.24v2.16h-3.24v10.26c0 1.26.72 2.34 2.34 2.34.36 0 .54 0 .9-.18v2.16c-.36.36-1.08.54-1.98.54zM377.36 10.26c-1.08 0-2.16-.9-2.16-1.8 0-1.08.9-1.8 2.16-1.8 1.08 0 2.16.9 2.16 1.8 0 1.08-.9 1.8-2.16 1.8zm-1.8 19.8V13.32h3.6v16.74h-3.6zM389.6 30.42c-4.14 0-7.2-3.42-7.2-8.82 0-5.58 3.24-8.82 7.2-8.82 2.16 0 3.42.54 4.32 1.26l-.72 1.98a4.86 4.86 0 0 0-2.7-.72c-2.88 0-4.5 2.52-4.5 6.3s1.8 6.3 4.32 6.3c1.08 0 1.98-.36 2.7-.9l.9 2.16c-.72.72-2.16 1.26-4.32 1.26zM400.58 30.42c-2.16 0-4.14-.54-5.04-1.26l.9-2.34a6.57 6.57 0 0 0 3.6 1.08c1.8 0 3.24-1.26 3.24-2.52 0-3.96-7.38-2.16-7.38-7.56 0-2.52 2.16-4.86 5.94-4.86 1.98 0 3.6.54 4.68 1.26l-.9 2.16a5.6 5.6 0 0 0-3.06-.9c-1.8 0-3.06 1.08-3.06 2.34 0 3.78 7.56 2.16 7.56 7.74 0 2.34-2.52 4.86-6.48 4.86z"/><g><path d="M.26 20.88c.54-1.08.9-1.98 1.62-3.06A30.65 30.65 0 0 1 .26 13.5v7.38zM3.68 0S.44 0 .44 4.14v.72a38.02 38.02 0 0 0 2.88 10.98c1.8-2.88 3.6-4.86 6.3-7.02 5.4-4.68 11.7-7.38 21.6-8.64H3.68V0z"/><path d="M35.72 2.16c-11.34 1.08-18.9 4.32-24.48 9-2.88 2.52-4.86 4.68-6.66 7.92C8.9 27.54 17.72 34.56 31.4 35.46h.18s4.14.18 4.14-4.5V2.16c.18 0 0 0 0 0zM6.74 26.1c-1.26-1.44-2.34-3.24-3.42-4.86a45.3 45.3 0 0 0-3.06 7.38v7.02h20.7c-6.48-2.16-10.44-5.22-14.22-9.54z"/></g></g></svg>